<svg width="1900" height="1200" viewBox="0 0 1900 1200" fill="none" xmlns="http://www.w3.org/2000/svg">
<g clip-path="url(#clip0)">
<rect width="1900" height="1200" fill="#ABABAB"/>
<g filter="url(#filter0_d)">
<path d="M1309.24 -41C1863.12 48.9735 2454.09 443.736 387 1303V-41H1309.24Z" fill="#AFAFAF"/>
<path d="M1309.24 -41C1863.12 48.9735 2454.09 443.736 387 1303V-41H1309.24Z" stroke="black" stroke-opacity="0.2"/>
</g>
<g filter="url(#filter1_d)">
<path d="M1091.02 -31C1682 60.714 2312.57 463.114 107 1339V-31H1091.02Z" fill="#979797"/>
<path d="M1091.02 -31C1682 60.714 2312.57 463.114 107 1339V-31H1091.02Z" stroke="black" stroke-opacity="0.2"/>
</g>
<g filter="url(#filter2_d)">
<path d="M913.327 -16C1461.85 73.9735 2047.11 468.736 0 1328V-16H913.327Z" fill="#848484"/>
<path d="M913.327 -16C1461.85 73.9735 2047.11 468.736 0 1328V-16H913.327Z" stroke="black" stroke-opacity="0.2"/>
</g>
<g filter="url(#filter3_d)">
<path d="M754.071 -1C1250.19 86.2957 1779.53 469.31 -72 1303V-1H754.071Z" fill="#737373"/>
<path d="M754.071 -1C1250.19 86.2957 1779.53 469.31 -72 1303V-1H754.071Z" stroke="black" stroke-opacity="0.2"/>
</g>
<g filter="url(#filter4_d)">
<path d="M555.308 -1C1026.94 87.2329 1530.17 474.359 -230 1317V-1H555.308Z" fill="#626262"/>
<path d="M555.308 -1C1026.94 87.2329 1530.17 474.359 -230 1317V-1H555.308Z" stroke="black" stroke-opacity="0.2"/>
</g>
</g>
<defs>
<filter id="filter0_d" x="376.5" y="-46.5" width="1469" height="1365.25" filterUnits="userSpaceOnUse" color-interpolation-filters="sRGB">
<feFlood flood-opacity="0" result="BackgroundImageFix"/>
<feColorMatrix in="SourceAlpha" type="matrix" values="0 0 0 0 0 0 0 0 0 0 0 0 0 0 0 0 0 0 127 0"/>
<feOffset dy="5"/>
<feGaussianBlur stdDeviation="5"/>
<feColorMatrix type="matrix" values="0 0 0 0 0 0 0 0 0 0 0 0 0 0 0 0 0 0 0.25 0"/>
<feBlend mode="normal" in2="BackgroundImageFix" result="effect1_dropShadow"/>
<feBlend mode="normal" in="SourceGraphic" in2="effect1_dropShadow" result="shape"/>
</filter>
<filter id="filter1_d" x="96.5" y="-36.5" width="1566" height="1391.24" filterUnits="userSpaceOnUse" color-interpolation-filters="sRGB">
<feFlood flood-opacity="0" result="BackgroundImageFix"/>
<feColorMatrix in="SourceAlpha" type="matrix" values="0 0 0 0 0 0 0 0 0 0 0 0 0 0 0 0 0 0 127 0"/>
<feOffset dy="5"/>
<feGaussianBlur stdDeviation="5"/>
<feColorMatrix type="matrix" values="0 0 0 0 0 0 0 0 0 0 0 0 0 0 0 0 0 0 0.25 0"/>
<feBlend mode="normal" in2="BackgroundImageFix" result="effect1_dropShadow"/>
<feBlend mode="normal" in="SourceGraphic" in2="effect1_dropShadow" result="shape"/>
</filter>
<filter id="filter2_d" x="-10.5" y="-21.5" width="1455" height="1365.25" filterUnits="userSpaceOnUse" color-interpolation-filters="sRGB">
<feFlood flood-opacity="0" result="BackgroundImageFix"/>
<feColorMatrix in="SourceAlpha" type="matrix" values="0 0 0 0 0 0 0 0 0 0 0 0 0 0 0 0 0 0 127 0"/>
<feOffset dy="5"/>
<feGaussianBlur stdDeviation="5"/>
<feColorMatrix type="matrix" values="0 0 0 0 0 0 0 0 0 0 0 0 0 0 0 0 0 0 0.25 0"/>
<feBlend mode="normal" in2="BackgroundImageFix" result="effect1_dropShadow"/>
<feBlend mode="normal" in="SourceGraphic" in2="effect1_dropShadow" result="shape"/>
</filter>
<filter id="filter3_d" x="-82.5" y="-6.5" width="1318" height="1325.27" filterUnits="userSpaceOnUse" color-interpolation-filters="sRGB">
<feFlood flood-opacity="0" result="BackgroundImageFix"/>
<feColorMatrix in="SourceAlpha" type="matrix" values="0 0 0 0 0 0 0 0 0 0 0 0 0 0 0 0 0 0 127 0"/>
<feOffset dy="5"/>
<feGaussianBlur stdDeviation="5"/>
<feColorMatrix type="matrix" values="0 0 0 0 0 0 0 0 0 0 0 0 0 0 0 0 0 0 0.25 0"/>
<feBlend mode="normal" in2="BackgroundImageFix" result="effect1_dropShadow"/>
<feBlend mode="normal" in="SourceGraphic" in2="effect1_dropShadow" result="shape"/>
</filter>
<filter id="filter4_d" x="-240.5" y="-6.5" width="1254" height="1339.29" filterUnits="userSpaceOnUse" color-interpolation-filters="sRGB">
<feFlood flood-opacity="0" result="BackgroundImageFix"/>
<feColorMatrix in="SourceAlpha" type="matrix" values="0 0 0 0 0 0 0 0 0 0 0 0 0 0 0 0 0 0 127 0"/>
<feOffset dy="5"/>
<feGaussianBlur stdDeviation="5"/>
<feColorMatrix type="matrix" values="0 0 0 0 0 0 0 0 0 0 0 0 0 0 0 0 0 0 0.25 0"/>
<feBlend mode="normal" in2="BackgroundImageFix" result="effect1_dropShadow"/>
<feBlend mode="normal" in="SourceGraphic" in2="effect1_dropShadow" result="shape"/>
</filter>
<clipPath id="clip0">
<rect width="1900" height="1200" fill="white"/>
</clipPath>
</defs>
</svg>
