<svg xmlns="http://www.w3.org/2000/svg" width="1900" height="1200" fill="none"><defs/><g clip-path="url(#clip0)"><path fill="#ABABAB" d="M0 0h1900v1200H0z"/><g filter="url(#filter0_d)"><path fill="#AFAFAF" d="M1309-41c554 90 1145 485-922 1344V-41h922z"/><path stroke="#000" stroke-opacity=".2" d="M1309-41c554 90 1145 485-922 1344V-41h922z"/></g><g filter="url(#filter1_d)"><path fill="#979797" d="M1091-31c591 92 1222 494-984 1370V-31h984z"/><path stroke="#000" stroke-opacity=".2" d="M1091-31c591 92 1222 494-984 1370V-31h984z"/></g><g filter="url(#filter2_d)"><path fill="#848484" d="M913-16C1462 74 2047 469 0 1328V-16h913z"/><path stroke="#000" stroke-opacity=".2" d="M913-16C1462 74 2047 469 0 1328V-16h913z"/></g><g filter="url(#filter3_d)"><path fill="#737373" d="M754-1c496 87 1026 470-826 1304V-1h826z"/><path stroke="#000" stroke-opacity=".2" d="M754-1c496 87 1026 470-826 1304V-1h826z"/></g><g filter="url(#filter4_d)"><path fill="#626262" d="M555-1c472 88 975 475-785 1318V-1h785z"/><path stroke="#000" stroke-opacity=".2" d="M555-1c472 88 975 475-785 1318V-1h785z"/></g></g><defs><filter id="filter0_d" width="1469" height="1365.3" x="377" y="-47" color-interpolation-filters="sRGB" filterUnits="userSpaceOnUse"><feFlood flood-opacity="0" result="BackgroundImageFix"/><feColorMatrix in="SourceAlpha" values="0 0 0 0 0 0 0 0 0 0 0 0 0 0 0 0 0 0 127 0"/><feOffset dy="5"/><feGaussianBlur stdDeviation="5"/><feColorMatrix values="0 0 0 0 0 0 0 0 0 0 0 0 0 0 0 0 0 0 0.25 0"/><feBlend in2="BackgroundImageFix" result="effect1_dropShadow"/><feBlend in="SourceGraphic" in2="effect1_dropShadow" result="shape"/></filter><filter id="filter1_d" width="1566" height="1391.2" x="97" y="-37" color-interpolation-filters="sRGB" filterUnits="userSpaceOnUse"><feFlood flood-opacity="0" result="BackgroundImageFix"/><feColorMatrix in="SourceAlpha" values="0 0 0 0 0 0 0 0 0 0 0 0 0 0 0 0 0 0 127 0"/><feOffset dy="5"/><feGaussianBlur stdDeviation="5"/><feColorMatrix values="0 0 0 0 0 0 0 0 0 0 0 0 0 0 0 0 0 0 0.25 0"/><feBlend in2="BackgroundImageFix" result="effect1_dropShadow"/><feBlend in="SourceGraphic" in2="effect1_dropShadow" result="shape"/></filter><filter id="filter2_d" width="1455" height="1365.3" x="-11" y="-22" color-interpolation-filters="sRGB" filterUnits="userSpaceOnUse"><feFlood flood-opacity="0" result="BackgroundImageFix"/><feColorMatrix in="SourceAlpha" values="0 0 0 0 0 0 0 0 0 0 0 0 0 0 0 0 0 0 127 0"/><feOffset dy="5"/><feGaussianBlur stdDeviation="5"/><feColorMatrix values="0 0 0 0 0 0 0 0 0 0 0 0 0 0 0 0 0 0 0.25 0"/><feBlend in2="BackgroundImageFix" result="effect1_dropShadow"/><feBlend in="SourceGraphic" in2="effect1_dropShadow" result="shape"/></filter><filter id="filter3_d" width="1318" height="1325.3" x="-83" y="-7" color-interpolation-filters="sRGB" filterUnits="userSpaceOnUse"><feFlood flood-opacity="0" result="BackgroundImageFix"/><feColorMatrix in="SourceAlpha" values="0 0 0 0 0 0 0 0 0 0 0 0 0 0 0 0 0 0 127 0"/><feOffset dy="5"/><feGaussianBlur stdDeviation="5"/><feColorMatrix values="0 0 0 0 0 0 0 0 0 0 0 0 0 0 0 0 0 0 0.25 0"/><feBlend in2="BackgroundImageFix" result="effect1_dropShadow"/><feBlend in="SourceGraphic" in2="effect1_dropShadow" result="shape"/></filter><filter id="filter4_d" width="1254" height="1339.3" x="-241" y="-7" color-interpolation-filters="sRGB" filterUnits="userSpaceOnUse"><feFlood flood-opacity="0" result="BackgroundImageFix"/><feColorMatrix in="SourceAlpha" values="0 0 0 0 0 0 0 0 0 0 0 0 0 0 0 0 0 0 127 0"/><feOffset dy="5"/><feGaussianBlur stdDeviation="5"/><feColorMatrix values="0 0 0 0 0 0 0 0 0 0 0 0 0 0 0 0 0 0 0.25 0"/><feBlend in2="BackgroundImageFix" result="effect1_dropShadow"/><feBlend in="SourceGraphic" in2="effect1_dropShadow" result="shape"/></filter><clipPath id="clip0"><path fill="#fff" d="M0 0h1900v1200H0z"/></clipPath></defs></svg>