<svg width="173" height="88" viewBox="0 0 173 88" fill="none" xmlns="http://www.w3.org/2000/svg">
<rect width="65.9894" height="65.9894" transform="matrix(0.857902 0.513813 -0.857902 0.513813 116.612 10)" fill="#898989"/>
<rect width="61.7133" height="61.7133" transform="matrix(0.857902 0.513813 -0.857902 0.513813 52.9439 12)" fill="#898989"/>
<rect width="85.3411" height="85.3411" transform="matrix(0.857379 0.514685 -0.857379 0.514685 86.2424 0)" fill="#313131"/>
<path d="M84.9776 35.25L77.3126 42.375L85.9076 51H83.2226L74.6876 42.405L82.2026 35.25H84.9776ZM74.3726 28.62V51H72.5126V28.875L74.3726 28.62ZM100.986 47.895C100.986 48.535 101.096 49.005 101.316 49.305C101.536 49.595 101.876 49.81 102.336 49.95L101.826 51.315C101.226 51.225 100.691 51.005 100.221 50.655C99.7509 50.305 99.4209 49.77 99.2309 49.05C98.6809 49.78 97.9909 50.34 97.1609 50.73C96.3409 51.11 95.4109 51.3 94.3709 51.3C92.8109 51.3 91.5859 50.86 90.6959 49.98C89.8059 49.1 89.3609 47.925 89.3609 46.455C89.3609 44.855 89.9809 43.63 91.2209 42.78C92.4709 41.93 94.2859 41.505 96.6659 41.505H99.0509V39.975C99.0509 38.745 98.6959 37.885 97.9859 37.395C97.2859 36.895 96.3259 36.645 95.1059 36.645C94.5759 36.645 93.9759 36.705 93.3059 36.825C92.6359 36.945 91.8909 37.15 91.0709 37.44L90.5309 35.91C91.4809 35.56 92.3409 35.315 93.1109 35.175C93.8909 35.035 94.6459 34.965 95.3759 34.965C97.2259 34.965 98.6209 35.42 99.5609 36.33C100.511 37.23 100.986 38.425 100.986 39.915V47.895ZM94.7309 49.815C95.5909 49.815 96.3959 49.605 97.1459 49.185C97.8959 48.765 98.5309 48.18 99.0509 47.43V42.93H96.4409C94.5709 42.93 93.2659 43.26 92.5259 43.92C91.7859 44.57 91.4159 45.435 91.4159 46.515C91.4159 47.605 91.6859 48.43 92.2259 48.99C92.7659 49.54 93.6009 49.815 94.7309 49.815ZM120.729 33.825L121.419 35.865C120.709 36.065 119.974 36.185 119.214 36.225C118.454 36.265 117.644 36.285 116.784 36.285C117.674 36.695 118.339 37.24 118.779 37.92C119.219 38.59 119.439 39.355 119.439 40.215C119.439 41.255 119.214 42.185 118.764 43.005C118.314 43.815 117.664 44.45 116.814 44.91C115.974 45.37 114.949 45.6 113.739 45.6C113.149 45.6 112.669 45.575 112.299 45.525C111.929 45.465 111.569 45.375 111.219 45.255C110.969 45.445 110.754 45.695 110.574 46.005C110.404 46.315 110.319 46.64 110.319 46.98C110.319 47.39 110.479 47.73 110.799 48C111.129 48.27 111.709 48.405 112.539 48.405H115.449C116.459 48.405 117.374 48.59 118.194 48.96C119.024 49.33 119.679 49.83 120.159 50.46C120.649 51.09 120.894 51.8 120.894 52.59C120.894 54.12 120.249 55.28 118.959 56.07C117.679 56.87 115.904 57.27 113.634 57.27C112.064 57.27 110.814 57.105 109.884 56.775C108.954 56.455 108.284 55.95 107.874 55.26C107.474 54.58 107.274 53.7 107.274 52.62H108.984C108.984 53.28 109.109 53.825 109.359 54.255C109.619 54.685 110.079 55.005 110.739 55.215C111.399 55.435 112.344 55.545 113.574 55.545C114.784 55.545 115.784 55.44 116.574 55.23C117.374 55.03 117.974 54.72 118.374 54.3C118.774 53.88 118.974 53.35 118.974 52.71C118.974 51.88 118.589 51.26 117.819 50.85C117.049 50.44 116.124 50.235 115.044 50.235H112.134C110.874 50.235 109.944 49.94 109.344 49.35C108.744 48.76 108.444 48.085 108.444 47.325C108.444 46.845 108.584 46.375 108.864 45.915C109.154 45.445 109.584 45.02 110.154 44.64C109.284 44.18 108.634 43.6 108.204 42.9C107.774 42.2 107.559 41.345 107.559 40.335C107.559 39.305 107.814 38.385 108.324 37.575C108.834 36.765 109.544 36.125 110.454 35.655C111.364 35.185 112.419 34.95 113.619 34.95C114.989 34.93 116.079 34.88 116.889 34.8C117.709 34.71 118.399 34.585 118.959 34.425C119.529 34.265 120.119 34.065 120.729 33.825ZM113.574 36.42C112.154 36.42 111.114 36.795 110.454 37.545C109.804 38.295 109.479 39.235 109.479 40.365C109.479 41.485 109.814 42.425 110.484 43.185C111.154 43.935 112.214 44.31 113.664 44.31C114.874 44.31 115.799 43.96 116.439 43.26C117.079 42.56 117.399 41.59 117.399 40.35C117.399 39.07 117.079 38.095 116.439 37.425C115.799 36.755 114.844 36.42 113.574 36.42Z" fill="#789EFF"/>
<path d="M84.9776 35.25L85.6584 35.9824L87.5222 34.25H84.9776V35.25ZM77.3126 42.375L76.6317 41.6426L75.8734 42.3475L76.6042 43.0809L77.3126 42.375ZM85.9076 51V52H88.3159L86.6159 50.2941L85.9076 51ZM83.2226 51L82.513 51.7046L82.8063 52H83.2226V51ZM74.6876 42.405L73.998 41.6808L73.2584 42.385L73.978 43.1096L74.6876 42.405ZM82.2026 35.25V34.25H81.8027L81.513 34.5258L82.2026 35.25ZM74.3726 28.62H75.3726V27.4735L74.2368 27.6293L74.3726 28.62ZM74.3726 51V52H75.3726V51H74.3726ZM72.5126 51H71.5126V52H72.5126V51ZM72.5126 28.875L72.3768 27.8843L71.5126 28.0027V28.875H72.5126ZM84.2967 34.5176L76.6317 41.6426L77.9934 43.1074L85.6584 35.9824L84.2967 34.5176ZM76.6042 43.0809L85.1992 51.7059L86.6159 50.2941L78.0209 41.6691L76.6042 43.0809ZM85.9076 50H83.2226V52H85.9076V50ZM83.9322 50.2954L75.3972 41.7004L73.978 43.1096L82.513 51.7046L83.9322 50.2954ZM75.3771 43.1292L82.8921 35.9742L81.513 34.5258L73.998 41.6808L75.3771 43.1292ZM82.2026 36.25H84.9776V34.25H82.2026V36.25ZM73.3726 28.62V51H75.3726V28.62H73.3726ZM74.3726 50H72.5126V52H74.3726V50ZM73.5126 51V28.875H71.5126V51H73.5126ZM72.6484 29.8657L74.5084 29.6107L74.2368 27.6293L72.3768 27.8843L72.6484 29.8657ZM101.316 49.305L100.509 49.8964L100.514 49.9029L100.519 49.9094L101.316 49.305ZM102.336 49.95L103.273 50.3L103.645 49.3032L102.627 48.9933L102.336 49.95ZM101.826 51.315L101.678 52.3039L102.479 52.4242L102.763 51.665L101.826 51.315ZM100.221 50.655L100.818 49.853L100.818 49.853L100.221 50.655ZM99.2309 49.05L100.198 48.7948L99.672 46.8026L98.4322 48.4483L99.2309 49.05ZM97.1609 50.73L97.5813 51.6373L97.5861 51.6351L97.1609 50.73ZM90.6959 49.98L91.399 49.2689L91.399 49.2689L90.6959 49.98ZM91.2209 42.78L90.6585 41.9531L90.6555 41.9552L91.2209 42.78ZM99.0509 41.505V42.505H100.051V41.505H99.0509ZM97.9859 37.395L97.4046 38.2087L97.4112 38.2134L97.4179 38.218L97.9859 37.395ZM93.3059 36.825L93.1296 35.8407L93.1296 35.8407L93.3059 36.825ZM91.0709 37.44L90.1279 37.7728L90.4609 38.7164L91.4043 38.3828L91.0709 37.44ZM90.5309 35.91L90.1852 34.9717L89.2596 35.3127L89.5879 36.2428L90.5309 35.91ZM93.1109 35.175L92.9342 34.1907L92.932 34.1911L93.1109 35.175ZM99.5609 36.33L98.8653 37.0485L98.8731 37.056L99.5609 36.33ZM97.1459 49.185L97.6345 50.0575L97.6345 50.0575L97.1459 49.185ZM99.0509 47.43L99.8727 47.9998L100.051 47.7428V47.43H99.0509ZM99.0509 42.93H100.051V41.93H99.0509V42.93ZM92.5259 43.92L93.1858 44.6713L93.1915 44.6663L92.5259 43.92ZM92.2259 48.99L91.506 49.6842L91.5123 49.6906L92.2259 48.99ZM99.9859 47.895C99.9859 48.6105 100.101 49.3401 100.509 49.8964L102.122 48.7136C102.09 48.6699 101.986 48.4595 101.986 47.895H99.9859ZM100.519 49.9094C100.902 50.4136 101.447 50.7249 102.045 50.9067L102.627 48.9933C102.304 48.8951 102.17 48.7764 102.113 48.7006L100.519 49.9094ZM101.399 49.6L100.889 50.965L102.763 51.665L103.273 50.3L101.399 49.6ZM101.974 50.3261C101.531 50.2596 101.151 50.1011 100.818 49.853L99.6236 51.457C100.23 51.9089 100.921 52.1904 101.678 52.3039L101.974 50.3261ZM100.818 49.853C100.574 49.6712 100.346 49.3562 100.198 48.7948L98.264 49.3052C98.4958 50.1838 98.9277 50.9388 99.6236 51.457L100.818 49.853ZM98.4322 48.4483C97.9805 49.0478 97.4188 49.5039 96.7356 49.8249L97.5861 51.6351C98.5629 51.1761 99.3813 50.5122 100.03 49.6517L98.4322 48.4483ZM96.7404 49.8227C96.0706 50.1331 95.2875 50.3 94.3709 50.3V52.3C95.5342 52.3 96.6111 52.0869 97.5813 51.6373L96.7404 49.8227ZM94.3709 50.3C93.0057 50.3 92.0581 49.9207 91.399 49.2689L89.9928 50.6911C91.1136 51.7993 92.6161 52.3 94.3709 52.3V50.3ZM91.399 49.2689C90.732 48.6094 90.3609 47.7082 90.3609 46.455H88.3609C88.3609 48.1418 88.8797 49.5906 89.9928 50.6911L91.399 49.2689ZM90.3609 46.455C90.3609 45.1597 90.8383 44.2546 91.7863 43.6048L90.6555 41.9552C89.1234 43.0054 88.3609 44.5503 88.3609 46.455H90.3609ZM91.7832 43.6069C92.7971 42.9175 94.3802 42.505 96.6659 42.505V40.505C94.1915 40.505 92.1446 40.9425 90.6585 41.9531L91.7832 43.6069ZM96.6659 42.505H99.0509V40.505H96.6659V42.505ZM100.051 41.505V39.975H98.0509V41.505H100.051ZM100.051 39.975C100.051 38.5666 99.6381 37.3203 98.5539 36.572L97.4179 38.218C97.7536 38.4497 98.0509 38.9234 98.0509 39.975H100.051ZM98.5671 36.5813C97.6399 35.919 96.4501 35.645 95.1059 35.645V37.645C96.2016 37.645 96.9318 37.871 97.4046 38.2087L98.5671 36.5813ZM95.1059 35.645C94.5029 35.645 93.8423 35.713 93.1296 35.8407L93.4822 37.8093C94.1094 37.697 94.6489 37.645 95.1059 37.645V35.645ZM93.1296 35.8407C92.3938 35.9724 91.5953 36.1938 90.7374 36.4972L91.4043 38.3828C92.1864 38.1062 92.8779 37.9176 93.4822 37.8093L93.1296 35.8407ZM92.0139 37.1072L91.4738 35.5772L89.5879 36.2428L90.1279 37.7728L92.0139 37.1072ZM90.8766 36.8483C91.7872 36.5128 92.5903 36.286 93.2897 36.1589L92.932 34.1911C92.0915 34.3439 91.1745 34.6072 90.1852 34.9717L90.8766 36.8483ZM93.2875 36.1593C94.0141 36.0289 94.7099 35.965 95.3759 35.965V33.965C94.5818 33.965 93.7676 34.0411 92.9342 34.1907L93.2875 36.1593ZM95.3759 35.965C97.0744 35.965 98.1773 36.3824 98.8653 37.0485L100.256 35.6115C99.0645 34.4576 97.3773 33.965 95.3759 33.965V35.965ZM98.8731 37.056C99.5954 37.7402 99.9859 38.6578 99.9859 39.915H101.986C101.986 38.1922 101.426 36.7198 100.249 35.604L98.8731 37.056ZM99.9859 39.915V47.895H101.986V39.915H99.9859ZM94.7309 50.815C95.7619 50.815 96.7351 50.5611 97.6345 50.0575L96.6573 48.3125C96.0566 48.6489 95.4199 48.815 94.7309 48.815V50.815ZM97.6345 50.0575C98.5252 49.5587 99.2715 48.8668 99.8727 47.9998L98.2291 46.8602C97.7902 47.4932 97.2665 47.9713 96.6573 48.3125L97.6345 50.0575ZM100.051 47.43V42.93H98.0509V47.43H100.051ZM99.0509 41.93H96.4409V43.93H99.0509V41.93ZM96.4409 41.93C94.5166 41.93 92.8883 42.2568 91.8602 43.1737L93.1915 44.6663C93.6434 44.2632 94.6252 43.93 96.4409 43.93V41.93ZM91.8659 43.1687C90.8874 44.0282 90.4159 45.1785 90.4159 46.515H92.4159C92.4159 45.6915 92.6843 45.1118 93.1858 44.6713L91.8659 43.1687ZM90.4159 46.515C90.4159 47.7591 90.7247 48.8739 91.506 49.6841L92.9457 48.2959C92.647 47.9861 92.4159 47.4509 92.4159 46.515H90.4159ZM91.5123 49.6906C92.3129 50.506 93.4575 50.815 94.7309 50.815V48.815C93.7442 48.815 93.2189 48.574 92.9394 48.2894L91.5123 49.6906ZM120.729 33.825L121.676 33.5046L121.34 32.51L120.363 32.8944L120.729 33.825ZM121.419 35.865L121.69 36.8275L122.704 36.542L122.366 35.5446L121.419 35.865ZM119.214 36.225L119.162 35.2264L119.162 35.2264L119.214 36.225ZM116.784 36.285V35.285L116.366 37.1933L116.784 36.285ZM118.779 37.92L117.94 38.4633L117.943 38.4689L118.779 37.92ZM118.764 43.005L119.638 43.4906L119.641 43.4861L118.764 43.005ZM116.814 44.91L116.338 44.0305L116.334 44.0329L116.814 44.91ZM112.299 45.525L112.139 46.5121L112.152 46.5142L112.165 46.516L112.299 45.525ZM111.219 45.255L111.543 44.3091L111.039 44.136L110.614 44.4588L111.219 45.255ZM110.574 46.005L109.709 45.5029L109.703 45.5134L109.697 45.5242L110.574 46.005ZM110.799 48L110.154 48.7643L110.16 48.7692L110.166 48.774L110.799 48ZM118.194 48.96L117.783 49.8715L117.787 49.8734L118.194 48.96ZM120.159 50.46L119.364 51.0661L119.37 51.0739L120.159 50.46ZM118.959 56.07L118.437 55.2172L118.429 55.222L118.959 56.07ZM109.884 56.775L110.219 55.8325L110.21 55.8294L109.884 56.775ZM107.874 55.26L107.012 55.767L107.014 55.7708L107.874 55.26ZM107.274 52.62V51.62H106.274V52.62H107.274ZM108.984 52.62H109.984V51.62H108.984V52.62ZM109.359 54.255L108.495 54.7576L108.499 54.7651L108.503 54.7724L109.359 54.255ZM110.739 55.215L111.055 54.2662L111.042 54.2621L110.739 55.215ZM116.574 55.23L116.332 54.2599L116.324 54.2617L116.317 54.2636L116.574 55.23ZM118.374 54.3L117.65 53.6103L117.65 53.6103L118.374 54.3ZM117.819 50.85L117.349 51.7327L117.349 51.7327L117.819 50.85ZM109.344 49.35L110.045 48.637L110.045 48.637L109.344 49.35ZM108.864 45.915L108.013 45.3899L108.01 45.3951L108.864 45.915ZM110.154 44.64L110.709 45.472L112.106 44.5407L110.622 43.756L110.154 44.64ZM108.204 42.9L109.056 42.3766L109.056 42.3766L108.204 42.9ZM108.324 37.575L109.17 38.1078L109.17 38.1078L108.324 37.575ZM110.454 35.655L110.913 36.5435L110.913 36.5435L110.454 35.655ZM113.619 34.95V35.95H113.626L113.634 35.9499L113.619 34.95ZM116.889 34.8L116.987 35.7952L116.998 35.794L116.889 34.8ZM118.959 34.425L118.689 33.4622L118.684 33.4635L118.959 34.425ZM110.454 37.545L109.703 36.8844L109.698 36.8901L110.454 37.545ZM110.484 43.185L109.734 43.8463L109.738 43.8512L110.484 43.185ZM116.439 43.26L115.701 42.5852L115.701 42.5852L116.439 43.26ZM116.439 37.425L115.716 38.1157L115.716 38.1157L116.439 37.425ZM119.782 34.1454L120.472 36.1854L122.366 35.5446L121.676 33.5046L119.782 34.1454ZM121.148 34.9025C120.512 35.0817 119.85 35.1902 119.162 35.2264L119.267 37.2236C120.098 37.1798 120.907 37.0483 121.69 36.8275L121.148 34.9025ZM119.162 35.2264C118.421 35.2654 117.629 35.285 116.784 35.285V37.285C117.659 37.285 118.487 37.2646 119.267 37.2236L119.162 35.2264ZM116.366 37.1933C117.12 37.5407 117.622 37.973 117.94 38.4633L119.619 37.3767C119.056 36.507 118.228 35.8493 117.203 35.3767L116.366 37.1933ZM117.943 38.4689C118.268 38.9639 118.439 39.5352 118.439 40.215H120.439C120.439 39.1748 120.17 38.2161 119.615 37.3711L117.943 38.4689ZM118.439 40.215C118.439 41.106 118.248 41.8673 117.887 42.5239L119.641 43.4861C120.18 42.5027 120.439 41.404 120.439 40.215H118.439ZM117.89 42.5194C117.537 43.1554 117.028 43.6571 116.338 44.0305L117.29 45.7895C118.3 45.2429 119.092 44.4746 119.638 43.4906L117.89 42.5194ZM116.334 44.0329C115.675 44.3937 114.825 44.6 113.739 44.6V46.6C115.074 46.6 116.273 46.3463 117.294 45.7871L116.334 44.0329ZM113.739 44.6C113.171 44.6 112.741 44.5756 112.433 44.534L112.165 46.516C112.597 46.5744 113.127 46.6 113.739 46.6V44.6ZM112.459 44.5379C112.144 44.4868 111.839 44.4105 111.543 44.3091L110.895 46.2009C111.299 46.3395 111.714 46.4432 112.139 46.5121L112.459 44.5379ZM110.614 44.4588C110.245 44.7393 109.946 45.0947 109.709 45.5029L111.439 46.5071C111.562 46.2953 111.693 46.1507 111.824 46.0512L110.614 44.4588ZM109.697 45.5242C109.45 45.9754 109.319 46.4651 109.319 46.98H111.319C111.319 46.8149 111.358 46.6546 111.451 46.4858L109.697 45.5242ZM109.319 46.98C109.319 47.6918 109.615 48.3089 110.154 48.7643L111.444 47.2357C111.344 47.1511 111.319 47.0882 111.319 46.98H109.319ZM110.166 48.774C110.779 49.2759 111.665 49.405 112.539 49.405V47.405C111.753 47.405 111.479 47.2641 111.432 47.226L110.166 48.774ZM112.539 49.405H115.449V47.405H112.539V49.405ZM115.449 49.405C116.335 49.405 117.107 49.5666 117.783 49.8715L118.605 48.0485C117.641 47.6134 116.584 47.405 115.449 47.405V49.405ZM117.787 49.8734C118.487 50.1853 118.999 50.5879 119.364 51.066L120.955 49.854C120.359 49.0721 119.562 48.4747 118.601 48.0466L117.787 49.8734ZM119.37 51.0739C119.725 51.5304 119.894 52.0248 119.894 52.59H121.894C121.894 51.5752 121.573 50.6496 120.948 49.8461L119.37 51.0739ZM119.894 52.59C119.894 53.7769 119.426 54.6115 118.437 55.2172L119.481 56.9228C121.072 55.9485 121.894 54.4631 121.894 52.59H119.894ZM118.429 55.222C117.369 55.8846 115.805 56.27 113.634 56.27V58.27C116.004 58.27 117.989 57.8554 119.489 56.918L118.429 55.222ZM113.634 56.27C112.119 56.27 110.997 56.1087 110.219 55.8326L109.55 57.7174C110.631 58.1013 112.009 58.27 113.634 58.27V56.27ZM110.21 55.8294C109.451 55.5685 108.997 55.1925 108.734 54.7492L107.014 55.7708C107.571 56.7075 108.457 57.3415 109.559 57.7206L110.21 55.8294ZM108.736 54.753C108.454 54.2732 108.274 53.5848 108.274 52.62H106.274C106.274 53.8152 106.494 54.8868 107.012 55.767L108.736 54.753ZM107.274 53.62H108.984V51.62H107.274V53.62ZM107.984 52.62C107.984 53.4006 108.131 54.133 108.495 54.7576L110.224 53.7524C110.087 53.517 109.984 53.1594 109.984 52.62H107.984ZM108.503 54.7724C108.929 55.4767 109.633 55.9123 110.436 56.1679L111.042 54.2621C110.526 54.0977 110.309 53.8933 110.215 53.7376L108.503 54.7724ZM110.423 56.1637C111.235 56.4342 112.306 56.545 113.574 56.545V54.545C112.382 54.545 111.564 54.4358 111.055 54.2663L110.423 56.1637ZM113.574 56.545C114.834 56.545 115.928 56.4366 116.831 56.1964L116.317 54.2636C115.641 54.4434 114.735 54.545 113.574 54.545V56.545ZM116.817 56.2001C117.727 55.9726 118.523 55.5932 119.098 54.9897L117.65 53.6103C117.425 53.8468 117.022 54.0874 116.332 54.2599L116.817 56.2001ZM119.098 54.9897C119.694 54.3638 119.974 53.5778 119.974 52.71H117.974C117.974 53.1222 117.854 53.3962 117.65 53.6103L119.098 54.9897ZM119.974 52.71C119.974 52.1348 119.839 51.5842 119.535 51.095C119.233 50.6084 118.799 50.239 118.289 49.9673L117.349 51.7327C117.609 51.871 117.753 52.0166 117.836 52.15C117.917 52.2808 117.974 52.4552 117.974 52.71H119.974ZM118.289 49.9673C117.344 49.4641 116.25 49.235 115.044 49.235V51.235C115.999 51.235 116.754 51.4159 117.349 51.7327L118.289 49.9673ZM115.044 49.235H112.134V51.235H115.044V49.235ZM112.134 49.235C111.008 49.235 110.383 48.9692 110.045 48.637L108.643 50.063C109.505 50.9108 110.741 51.235 112.134 51.235V49.235ZM110.045 48.637C109.614 48.2128 109.444 47.7868 109.444 47.325H107.444C107.444 48.3832 107.874 49.3072 108.643 50.063L110.045 48.637ZM109.444 47.325C109.444 47.0501 109.522 46.7579 109.718 46.4349L108.01 45.3951C107.647 45.9921 107.444 46.6399 107.444 47.325H109.444ZM109.715 46.4401C109.914 46.1183 110.231 45.7909 110.709 45.472L109.599 43.8079C108.938 44.2491 108.395 44.7717 108.013 45.3899L109.715 46.4401ZM110.622 43.756C109.878 43.363 109.376 42.8965 109.056 42.3766L107.352 43.4234C107.893 44.3035 108.69 44.997 109.687 45.524L110.622 43.756ZM109.056 42.3766C108.743 41.8666 108.559 41.2026 108.559 40.335H106.559C106.559 41.4874 106.805 42.5334 107.352 43.4234L109.056 42.3766ZM108.559 40.335C108.559 39.4786 108.769 38.7461 109.17 38.1078L107.478 37.0422C106.86 38.0239 106.559 39.1314 106.559 40.335H108.559ZM109.17 38.1078C109.579 37.4594 110.15 36.9376 110.913 36.5435L109.995 34.7665C108.938 35.3124 108.09 36.0706 107.478 37.0422L109.17 38.1078ZM110.913 36.5435C111.659 36.1584 112.551 35.95 113.619 35.95V33.95C112.287 33.95 111.07 34.2116 109.995 34.7665L110.913 36.5435ZM113.634 35.9499C115.016 35.9297 116.137 35.8791 116.987 35.7952L116.791 33.8048C116.021 33.8809 114.963 33.9303 113.605 33.9501L113.634 35.9499ZM116.998 35.794C117.853 35.7002 118.603 35.5669 119.234 35.3865L118.684 33.4635C118.196 33.6031 117.565 33.7198 116.78 33.806L116.998 35.794ZM119.229 35.3878C119.835 35.2178 120.457 35.0066 121.095 34.7556L120.363 32.8944C119.781 33.1234 119.223 33.3122 118.689 33.4622L119.229 35.3878ZM113.574 35.42C111.991 35.42 110.622 35.84 109.703 36.8844L111.205 38.2056C111.606 37.75 112.317 37.42 113.574 37.42V35.42ZM109.698 36.8901C108.869 37.847 108.479 39.0299 108.479 40.365H110.479C110.479 39.4401 110.739 38.743 111.21 38.1999L109.698 36.8901ZM108.479 40.365C108.479 41.7009 108.886 42.8839 109.734 43.8463L111.234 42.5237C110.743 41.9661 110.479 41.2691 110.479 40.365H108.479ZM109.738 43.8512C110.67 44.8936 112.058 45.31 113.664 45.31V43.31C112.37 43.31 111.639 42.9764 111.23 42.5188L109.738 43.8512ZM113.664 45.31C115.073 45.31 116.298 44.8958 117.177 43.9348L115.701 42.5852C115.3 43.0242 114.676 43.31 113.664 43.31V45.31ZM117.177 43.9348C118.032 42.9996 118.399 41.761 118.399 40.35H116.399C116.399 41.419 116.126 42.1204 115.701 42.5852L117.177 43.9348ZM118.399 40.35C118.399 38.9121 118.038 37.6516 117.162 36.7343L115.716 38.1157C116.12 38.5384 116.399 39.2279 116.399 40.35H118.399ZM117.162 36.7343C116.272 35.8022 115.013 35.42 113.574 35.42V37.42C114.675 37.42 115.326 37.7078 115.716 38.1157L117.162 36.7343Z" fill="#789EFF"/>
<rect width="4.76943" height="35.1181" transform="matrix(0.906308 0.422618 -0.433927 0.900948 64.2387 22)" fill="#898989"/>
</svg>
