<svg width="173" height="88" fill="none" xmlns="http://www.w3.org/2000/svg"><path fill="#898989" d="M116.6 10l56.6 34-56.6 33.8L60 44z"/><path fill="#898989" d="M53 12l52.9 31.7-53 31.7L0 43.7z"/><path fill="#313131" d="M86.2 0l73.2 43.9-73.2 44-73-44z"/><path d="M85 35.3l-7.7 7L86 51h-2.7l-8.5-8.6 7.5-7.1H85zm-10.6-6.7V51h-1.9V28.9l1.9-.3zM101 48c0 .6.1 1.1.3 1.4.2.3.6.5 1 .7l-.5 1.3c-.6 0-1.1-.3-1.6-.6-.4-.4-.8-1-1-1.7-.5.8-1.2 1.3-2 1.7-.9.4-1.8.6-2.8.6a5 5 0 01-3.7-1.3c-.9-.9-1.3-2-1.3-3.5 0-1.6.6-2.9 1.8-3.7 1.3-.9 3-1.3 5.5-1.3H99V40c0-1.3-.4-2.1-1.1-2.6-.7-.5-1.7-.8-2.9-.8l-1.8.2-2.2.6-.6-1.5a15.7 15.7 0 014.9-1c1.8 0 3.2.5 4.2 1.4 1 1 1.4 2.1 1.4 3.6v8zm-6.3 2a5.7 5.7 0 004.3-2.4v-4.6h-2.6c-1.8 0-3.1.4-3.9 1-.7.7-1 1.5-1 2.6s.2 2 .7 2.5c.6.5 1.4.8 2.5.8zm26-16l.7 2a46.4 46.4 0 01-4.6.4c.9.4 1.5 1 2 1.6.4.7.6 1.5.6 2.3 0 1-.2 2-.6 2.8-.5.8-1.1 1.5-2 2-.8.4-1.9.6-3 .6h-1.5l-1-.3c-.3.1-.5.4-.7.7a2 2 0 00-.3 1c0 .4.2.7.5 1 .3.3 1 .4 1.7.4h3c1 0 1.9.2 2.7.6a5 5 0 012 1.5c.4.6.7 1.3.7 2 0 1.6-.7 2.8-2 3.6a10 10 0 01-5.3 1.2c-1.5 0-2.8-.2-3.7-.5-1-.3-1.6-.8-2-1.5-.4-.7-.6-1.6-.6-2.7h1.7c0 .7.1 1.2.4 1.7.2.4.7.7 1.3 1l2.9.2a12 12 0 003-.3c.8-.2 1.4-.5 1.8-.9.4-.4.6-1 .6-1.6a2 2 0 00-1.2-1.9c-.8-.4-1.7-.6-2.8-.6h-2.9c-1.2 0-2.2-.3-2.8-.9-.6-.5-.9-1.2-.9-2 0-.5.2-1 .5-1.4.3-.5.7-.9 1.3-1.3-1-.4-1.6-1-2-1.7-.4-.7-.6-1.6-.6-2.6a5 5 0 012.9-4.6c.9-.5 2-.8 3.1-.8a41 41 0 005.4-.5l1.7-.6zm-7.1 2.5c-1.4 0-2.5.4-3.1 1.1-.7.8-1 1.7-1 2.9 0 1 .3 2 1 2.8.7.7 1.7 1.1 3.2 1.1 1.2 0 2.1-.3 2.7-1 .7-.7 1-1.7 1-3 0-1.2-.3-2.2-1-2.9-.6-.6-1.6-1-2.8-1z" fill="#789EFF"/><path d="M85 35.3l.7.7 1.8-1.8H85v1zm-7.7 7l-.7-.7-.7.7.7.8.7-.7zM86 51v1h2.4l-1.7-1.7-.7.7zm-2.7 0l-.7.7.3.3h.4v-1zm-8.5-8.6l-.7-.7-.7.7.7.7.7-.7zm7.5-7.1v-1h-.4l-.3.2.7.8zm-7.8-6.7h1v-1.1l-1.2.1.2 1zm0 22.4v1h1v-1h-1zm-1.9 0h-1v1h1v-1zm0-22.1l-.1-1-.9.1v.9h1zm11.8 5.6l-7.7 7.1 1.4 1.5 7.7-7.1-1.4-1.5zm-7.7 8.6l8.6 8.6 1.4-1.4-8.6-8.6-1.4 1.4zm9.3 6.9h-2.7v2H86v-2zm-2 .3l-8.5-8.6-1.4 1.4 8.5 8.6 1.4-1.4zm-8.5-7.2l7.5-7.1-1.4-1.5-7.5 7.2 1.4 1.4zm6.8-6.9H85v-2h-2.8v2zm-8.8-7.6V51h2V28.6h-2zm1 21.4h-1.9v2h1.9v-2zm-.9 1V28.9h-2V51h2zm-.9-21.1l2-.3-.4-2-1.8.3.2 2zm28.7 19.4l-.8.6.8-.6zm1 .7l1 .3.3-1-1-.3-.3 1zm-.5 1.3l-.1 1 .8.1.3-.7-1-.4zm-1.6-.6l.6-.8-.6.8zm-1-1.7l1-.2-.5-2-1.3 1.6.8.6zm-2 1.7l.4 1-.4-1zm-6.5-.7l.7-.7-.7.7zm.5-7.2l-.5-.8.5.8zm7.9-1.3v1h1v-1h-1zM98 37.4l-.6.8.6-.8zm-4.7-.6l-.2-1 .2 1zm-2.2.6l-1 .4.4 1 .9-.4-.3-1zm-.6-1.5l-.3-1-1 .4.4 1 1-.4zm2.6-.7l-.2-1 .2 1zm6.5 1.1l-.7.7.7-.7zM97 49.2l.5.9-.5-1zm2-1.8l.8.6.2-.3v-.3h-1zm0-4.5h1v-1h-1v1zm-6.6 1l.7.8-.7-.8zm-.3 5l-.7.8.7-.7zm7.8-1c0 .7.1 1.4.5 2l1.6-1.2-.1-.8h-2zm.5 2c.4.5 1 .8 1.5 1l.6-2c-.3 0-.4-.1-.5-.2l-1.6 1.2zm.9-.3l-.5 1.4 1.9.7.5-1.4-1.9-.7zm.6.7c-.5 0-.8-.2-1.2-.4l-1.2 1.6c.6.4 1.3.7 2 .8l.4-2zm-1.2-.4c-.2-.2-.5-.5-.6-1.1l-2 .5c.3.9.7 1.6 1.4 2.2l1.2-1.6zm-2.4-1.5c-.4.6-1 1.1-1.7 1.4l.9 1.8c1-.4 1.8-1 2.4-2l-1.6-1.2zm-1.7 1.4c-.6.3-1.4.5-2.3.5v2c1.1 0 2.2-.2 3.2-.7l-.9-1.8zm-2.3.5c-1.4 0-2.3-.4-3-1L90 50.7a6 6 0 004.4 1.6v-2zm-3-1c-.7-.7-1-1.6-1-2.8h-2c0 1.6.5 3 1.6 4.2l1.4-1.4zm-1-2.8c0-1.3.4-2.2 1.4-2.9L90.7 42a5.2 5.2 0 00-2.3 4.5h2zm1.4-2.9c1-.7 2.6-1 4.9-1v-2c-2.5 0-4.6.3-6 1.4l1 1.6zm4.9-1H99v-2h-2.4v2zm3.4-1V40h-2v1.5h2zm0-1.6c0-1.4-.5-2.7-1.5-3.4l-1.2 1.6c.4.2.7.7.7 1.8h2zm-1.5-3.4c-1-.7-2.1-1-3.5-1v2a4 4 0 012.3.6l1.2-1.6zm-3.5-1l-2 .2.4 2 1.6-.2v-2zm-2 .2l-2.4.7.7 1.9 2-.6-.3-2zm-1 1.3l-.6-1.5-2 .6.6 1.6 2-.7zm-1.2-.3l2.4-.6-.4-2c-.8.1-1.7.4-2.7.8l.7 1.8zm2.4-.6c.7-.2 1.4-.2 2-.2v-2c-.7 0-1.5 0-2.4.2l.4 2zm2-.2c1.8 0 2.9.4 3.6 1l1.4-1.4c-1.2-1.1-3-1.6-5-1.6v2zm3.6 1c.7.7 1 1.7 1 3h2c0-1.8-.5-3.3-1.7-4.4L99 37.1zm1 3v7.9h2v-8h-2zm-5.2 10.8c1 0 2-.2 3-.7l-1-1.8c-.6.3-1.3.5-2 .5v2zm3-.7c.8-.5 1.6-1.2 2.2-2.1l-1.7-1.1c-.4.6-1 1-1.5 1.4l1 1.8zm2.4-2.7V43h-2v4.5h2zM99 42h-2.7v2h2.7v-2zm-2.7 0c-1.9 0-3.5.4-4.5 1.3l1.3 1.5c.4-.4 1.4-.8 3.2-.8v-2zM92 43.2c-1 .8-1.5 2-1.5 3.3h2c0-.8.3-1.4.8-1.8l-1.3-1.5zm-1.5 3.3c0 1.3.3 2.4 1.1 3.2l1.4-1.4c-.3-.3-.5-.8-.5-1.8h-2zm1.1 3.2c.8.8 2 1.1 3.2 1.1v-2c-1 0-1.5-.2-1.8-.5l-1.4 1.4zm29.2-15.9l1-.3-.4-1-1 .4.4 1zm.7 2l.3 1 1-.3-.3-1-1 .4zm-2.2.4v-1 1zm-2.4 0v-1l-.4 2 .4-1zm2 1.7l-.9.6.9-.6zm0 5.1l.8.5-.8-.5zm-2 2l-.5-1 .5 1zm-4.5.5l-.2 1 .2-1zm-1-.2l.2-1-.5-.2-.4.4.6.8zm-.7.7l-.9-.5.9.5zm.2 2l-.6.8.6-.8zm7.4 1l-.4.9.4-1zm2 1.5l-.8.6.8-.6zM119 56l-.6-.9.6.9zm-9.1.7l.3-1-.3 1zm-2-1.5l-.9.5.9-.5zm-.6-2.7v-1h-1v1h1zm1.7 0h1v-1h-1v1zm.4 1.7l-1 .5h.1l.9-.5zm1.3 1l.4-1-.4 1zm5.9 0l-.3-1 .3 1zm1.8-1l-.8-.7.8.7zm-.6-3.4l-.5.8.5-.9zm-8.5-1.5l.7-.8-.7.8zm-.4-3.5l-.9-.5.9.5zm1.3-1.3l.5.9 1.4-1-1.5-.7-.4.8zm-2-1.7l.9-.5-.9.5zm.1-5.3l.9.5-.9-.5zm2.2-2l.4 1-.4-1zm3.1-.6v1-1zm3.3-.2v1h.1l-.1-1zm2-.4l-.2-1 .3 1zm-8.4 3.1l-.8-.6.8.6zm0 5.7l-.8.6.8-.6zm6 0l-.8-.6.7.7zm0-5.8l-.8.7.7-.7zm3.3-3.3l.7 2 1.9-.6-.7-2-2 .6zm1.3.8a9 9 0 01-2 .3l.2 2c.8 0 1.6-.2 2.4-.4L121 35zm-2 .3h-2.3v2h2.5l-.1-2zm-2.7 2c.7.3 1.2.8 1.5 1.3l1.7-1.1a5.6 5.6 0 00-2.4-2l-.8 1.8zm1.5 1.3c.4.5.5 1 .5 1.7h2c0-1-.2-2-.8-2.8l-1.7 1zm.5 1.7c0 1-.2 1.7-.5 2.3l1.7 1c.6-1 .8-2.1.8-3.3h-2zm-.5 2.3c-.4.7-.9 1.2-1.6 1.5l1 1.8c1-.6 1.8-1.3 2.3-2.3l-1.7-1zm-1.6 1.5c-.6.4-1.5.6-2.6.6v2c1.4 0 2.6-.3 3.6-.8l-1-1.8zm-2.6.6h-1.3l-.2 2h1.5v-2zm-1.2 0l-1-.3-.6 1.9 1.2.3.4-2zm-1.9-.1c-.4.2-.7.6-.9 1l1.7 1 .4-.4-1.2-1.6zm-.9 1a3 3 0 00-.4 1.5h2c0-.2 0-.3.2-.5l-1.8-1zm-.4 1.5c0 .7.3 1.3.9 1.8l1.2-1.6V47h-2zm.9 1.8c.6.5 1.5.6 2.3.6v-2c-.7 0-1-.1-1-.2l-1.3 1.6zm2.3.6h3v-2h-3v2zm3 0c.8 0 1.6.2 2.3.5l.8-1.9c-1-.4-2-.6-3.2-.6v2zm2.3.5a4 4 0 011.6 1.2l1.6-1.2a6 6 0 00-2.4-1.9l-.8 1.9zm1.6 1.2c.3.4.5 1 .5 1.5h2c0-1-.3-2-1-2.8l-1.5 1.3zm.5 1.5c0 1.2-.5 2-1.5 2.6l1 1.7c1.7-1 2.5-2.4 2.5-4.3h-2zm-1.5 2.6a9 9 0 01-4.8 1v2a11 11 0 005.9-1.3l-1-1.7zm-4.8 1c-1.5 0-2.6 0-3.4-.4l-.7 2c1.1.3 2.5.5 4.1.5v-2zm-3.4-.4c-.7-.2-1.2-.6-1.5-1l-1.7 1c.6 1 1.5 1.5 2.6 2l.6-2zm-1.5-1c-.2-.5-.4-1.2-.4-2.2h-2c0 1.2.2 2.3.7 3.2l1.7-1zm-1.4-1.2h1.7v-2h-1.7v2zm.7-1c0 .8.1 1.5.5 2.2l1.7-1-.2-1.2h-2zm.5 2.2c.4.7 1.1 1.1 2 1.4l.5-2c-.5-.1-.7-.3-.8-.5l-1.7 1zm2 1.4c.7.2 1.8.3 3 .3v-2c-1.1 0-2 0-2.4-.2l-.7 1.9zm3 .3c1.3 0 2.4 0 3.3-.3l-.5-2c-.7.2-1.6.3-2.7.3v2zm3.3-.3c1-.2 1.7-.6 2.3-1.2l-1.4-1.4c-.3.2-.7.5-1.4.7l.5 1.9zm2.3-1.2c.6-.6.9-1.4.9-2.3h-2c0 .4-.1.7-.3 1L119 55zm.9-2.3a3 3 0 00-.5-1.6c-.3-.5-.7-.9-1.2-1.1l-1 1.7.5.4.2.6h2zm-1.7-2.7c-1-.5-2-.8-3.3-.8v2c1 0 1.8.2 2.3.5l1-1.7zm-3.3-.8h-2.9v2h3v-2zm-2.9 0c-1 0-1.7-.2-2-.6l-1.5 1.5c1 .8 2.1 1.1 3.5 1.1v-2zm-2-.6c-.5-.4-.7-.8-.7-1.3h-2c0 1 .5 2 1.2 2.8l1.4-1.5zm-.7-1.3l.3-.9-1.7-1c-.4.6-.6 1.2-.6 2h2zm.3-.9l1-1-1.1-1.6c-.7.4-1.2 1-1.6 1.6l1.7 1zm1-2.6a4 4 0 01-1.6-1.4l-1.7 1c.5.9 1.3 1.6 2.3 2.1l1-1.7zm-1.6-1.4c-.4-.5-.5-1.2-.5-2h-2c0 1 .2 2.1.8 3l1.7-1zm-.5-2c0-1 .2-1.7.6-2.3l-1.7-1c-.6 1-1 2-1 3.2h2zm.6-2.3c.4-.6 1-1.2 1.7-1.6l-1-1.7c-1 .5-1.8 1.3-2.4 2.2l1.7 1.1zm1.7-1.6c.8-.3 1.7-.5 2.7-.5v-2c-1.3 0-2.5.2-3.6.8l1 1.7zm2.7-.6l3.4-.1-.2-2-3.2.2v2zm3.4-.1l2.2-.4-.5-2-2 .4.3 2zm2.2-.4l1.9-.6-.7-2-1.7.7.5 1.9zm-5.6 0c-1.6 0-3 .4-3.9 1.5l1.5 1.3c.4-.5 1.1-.8 2.4-.8v-2zm-3.9 1.5c-.8 1-1.2 2.1-1.2 3.5h2c0-1 .2-1.7.7-2.2l-1.5-1.3zm-1.2 3.5c0 1.3.4 2.5 1.2 3.4l1.5-1.3c-.5-.5-.7-1.2-.7-2.1h-2zm1.2 3.5c1 1 2.4 1.4 4 1.4v-2c-1.3 0-2-.3-2.5-.8l-1.5 1.4zm4 1.4c1.4 0 2.6-.4 3.5-1.4l-1.5-1.3c-.4.4-1 .7-2 .7v2zm3.5-1.4c.8-.9 1.2-2.1 1.2-3.5h-2c0 1-.3 1.7-.7 2.2l1.5 1.3zm1.2-3.5a5 5 0 00-1.2-3.7l-1.5 1.4c.4.4.7 1.1.7 2.3h2zm-1.2-3.7c-1-.9-2.2-1.3-3.6-1.3v2c1 0 1.7.3 2.1.7l1.5-1.4z" fill="#789EFF"/><path fill="#898989" d="M64.2 22l4.4 2-15.2 31.7-4.4-2z"/></svg>