<svg width="173" height="88" viewBox="0 0 173 88" fill="none" xmlns="http://www.w3.org/2000/svg">
<rect width="65.9894" height="65.9894" transform="matrix(0.857902 0.513813 -0.857902 0.513813 116.612 10)" fill="#898989"/>
<rect width="61.7133" height="61.7133" transform="matrix(0.857902 0.513813 -0.857902 0.513813 52.944 12)" fill="#898989"/>
<rect width="85.3411" height="85.3411" transform="matrix(0.857379 0.514685 -0.857379 0.514685 86.2425 0)" fill="#313131"/>
<path d="M88.9775 36.25L81.3125 43.375L89.9075 52H87.2225L78.6875 43.405L86.2025 36.25H88.9775ZM78.3725 29.62V52H76.5125V29.875L78.3725 29.62ZM104.986 48.895C104.986 49.535 105.096 50.005 105.316 50.305C105.536 50.595 105.876 50.81 106.336 50.95L105.826 52.315C105.226 52.225 104.691 52.005 104.221 51.655C103.751 51.305 103.421 50.77 103.231 50.05C102.681 50.78 101.991 51.34 101.161 51.73C100.341 52.11 99.4108 52.3 98.3708 52.3C96.8108 52.3 95.5858 51.86 94.6958 50.98C93.8058 50.1 93.3608 48.925 93.3608 47.455C93.3608 45.855 93.9808 44.63 95.2208 43.78C96.4708 42.93 98.2858 42.505 100.666 42.505H103.051V40.975C103.051 39.745 102.696 38.885 101.986 38.395C101.286 37.895 100.326 37.645 99.1058 37.645C98.5758 37.645 97.9758 37.705 97.3058 37.825C96.6358 37.945 95.8908 38.15 95.0708 38.44L94.5308 36.91C95.4808 36.56 96.3408 36.315 97.1108 36.175C97.8908 36.035 98.6458 35.965 99.3758 35.965C101.226 35.965 102.621 36.42 103.561 37.33C104.511 38.23 104.986 39.425 104.986 40.915V48.895ZM98.7308 50.815C99.5908 50.815 100.396 50.605 101.146 50.185C101.896 49.765 102.531 49.18 103.051 48.43V43.93H100.441C98.5708 43.93 97.2658 44.26 96.5258 44.92C95.7858 45.57 95.4158 46.435 95.4158 47.515C95.4158 48.605 95.6858 49.43 96.2258 49.99C96.7658 50.54 97.6008 50.815 98.7308 50.815ZM124.729 34.825L125.419 36.865C124.709 37.065 123.974 37.185 123.214 37.225C122.454 37.265 121.644 37.285 120.784 37.285C121.674 37.695 122.339 38.24 122.779 38.92C123.219 39.59 123.439 40.355 123.439 41.215C123.439 42.255 123.214 43.185 122.764 44.005C122.314 44.815 121.664 45.45 120.814 45.91C119.974 46.37 118.949 46.6 117.739 46.6C117.149 46.6 116.669 46.575 116.299 46.525C115.929 46.465 115.569 46.375 115.219 46.255C114.969 46.445 114.754 46.695 114.574 47.005C114.404 47.315 114.319 47.64 114.319 47.98C114.319 48.39 114.479 48.73 114.799 49C115.129 49.27 115.709 49.405 116.539 49.405H119.449C120.459 49.405 121.374 49.59 122.194 49.96C123.024 50.33 123.679 50.83 124.159 51.46C124.649 52.09 124.894 52.8 124.894 53.59C124.894 55.12 124.249 56.28 122.959 57.07C121.679 57.87 119.904 58.27 117.634 58.27C116.064 58.27 114.814 58.105 113.884 57.775C112.954 57.455 112.284 56.95 111.874 56.26C111.474 55.58 111.274 54.7 111.274 53.62H112.984C112.984 54.28 113.109 54.825 113.359 55.255C113.619 55.685 114.079 56.005 114.739 56.215C115.399 56.435 116.344 56.545 117.574 56.545C118.784 56.545 119.784 56.44 120.574 56.23C121.374 56.03 121.974 55.72 122.374 55.3C122.774 54.88 122.974 54.35 122.974 53.71C122.974 52.88 122.589 52.26 121.819 51.85C121.049 51.44 120.124 51.235 119.044 51.235H116.134C114.874 51.235 113.944 50.94 113.344 50.35C112.744 49.76 112.444 49.085 112.444 48.325C112.444 47.845 112.584 47.375 112.864 46.915C113.154 46.445 113.584 46.02 114.154 45.64C113.284 45.18 112.634 44.6 112.204 43.9C111.774 43.2 111.559 42.345 111.559 41.335C111.559 40.305 111.814 39.385 112.324 38.575C112.834 37.765 113.544 37.125 114.454 36.655C115.364 36.185 116.419 35.95 117.619 35.95C118.989 35.93 120.079 35.88 120.889 35.8C121.709 35.71 122.399 35.585 122.959 35.425C123.529 35.265 124.119 35.065 124.729 34.825ZM117.574 37.42C116.154 37.42 115.114 37.795 114.454 38.545C113.804 39.295 113.479 40.235 113.479 41.365C113.479 42.485 113.814 43.425 114.484 44.185C115.154 44.935 116.214 45.31 117.664 45.31C118.874 45.31 119.799 44.96 120.439 44.26C121.079 43.56 121.399 42.59 121.399 41.35C121.399 40.07 121.079 39.095 120.439 38.425C119.799 37.755 118.844 37.42 117.574 37.42Z" fill="#789EFF"/>
<path d="M88.9775 36.25L89.6584 36.9824L91.5221 35.25H88.9775V36.25ZM81.3125 43.375L80.6317 42.6426L79.8734 43.3475L80.6042 44.0809L81.3125 43.375ZM89.9075 52V53H92.3158L90.6159 51.2941L89.9075 52ZM87.2225 52L86.513 52.7046L86.8063 53H87.2225V52ZM78.6875 43.405L77.998 42.6808L77.2584 43.385L77.978 44.1096L78.6875 43.405ZM86.2025 36.25V35.25H85.8026L85.513 35.5258L86.2025 36.25ZM78.3725 29.62H79.3725V28.4735L78.2367 28.6293L78.3725 29.62ZM78.3725 52V53H79.3725V52H78.3725ZM76.5125 52H75.5125V53H76.5125V52ZM76.5125 29.875L76.3767 28.8843L75.5125 29.0027V29.875H76.5125ZM88.2967 35.5176L80.6317 42.6426L81.9934 44.1074L89.6584 36.9824L88.2967 35.5176ZM80.6042 44.0809L89.1992 52.7059L90.6159 51.2941L82.0209 42.6691L80.6042 44.0809ZM89.9075 51H87.2225V53H89.9075V51ZM87.9321 51.2954L79.3971 42.7004L77.978 44.1096L86.513 52.7046L87.9321 51.2954ZM79.3771 44.1292L86.8921 36.9742L85.513 35.5258L77.998 42.6808L79.3771 44.1292ZM86.2025 37.25H88.9775V35.25H86.2025V37.25ZM77.3725 29.62V52H79.3725V29.62H77.3725ZM78.3725 51H76.5125V53H78.3725V51ZM77.5125 52V29.875H75.5125V52H77.5125ZM76.6484 30.8657L78.5084 30.6107L78.2367 28.6293L76.3767 28.8843L76.6484 30.8657ZM105.316 50.305L104.509 50.8964L104.514 50.9029L104.519 50.9094L105.316 50.305ZM106.336 50.95L107.273 51.3L107.645 50.3032L106.627 49.9933L106.336 50.95ZM105.826 52.315L105.677 53.3039L106.479 53.4242L106.763 52.665L105.826 52.315ZM104.221 51.655L104.818 50.853L104.818 50.853L104.221 51.655ZM103.231 50.05L104.198 49.7948L103.672 47.8026L102.432 49.4483L103.231 50.05ZM101.161 51.73L101.581 52.6373L101.586 52.6351L101.161 51.73ZM94.6958 50.98L95.3989 50.2689L95.3989 50.2689L94.6958 50.98ZM95.2208 43.78L94.6585 42.9531L94.6554 42.9552L95.2208 43.78ZM103.051 42.505V43.505H104.051V42.505H103.051ZM101.986 38.395L101.405 39.2087L101.411 39.2134L101.418 39.218L101.986 38.395ZM97.3058 37.825L97.1295 36.8407L97.1295 36.8407L97.3058 37.825ZM95.0708 38.44L94.1278 38.7728L94.4609 39.7164L95.4043 39.3828L95.0708 38.44ZM94.5308 36.91L94.1851 35.9717L93.2595 36.3127L93.5878 37.2428L94.5308 36.91ZM97.1108 36.175L96.9342 35.1907L96.9319 35.1911L97.1108 36.175ZM103.561 37.33L102.865 38.0485L102.873 38.056L103.561 37.33ZM101.146 50.185L101.634 51.0575L101.634 51.0575L101.146 50.185ZM103.051 48.43L103.873 48.9998L104.051 48.7428V48.43H103.051ZM103.051 43.93H104.051V42.93H103.051V43.93ZM96.5258 44.92L97.1858 45.6713L97.1914 45.6663L96.5258 44.92ZM96.2258 49.99L95.506 50.6842L95.5123 50.6906L96.2258 49.99ZM103.986 48.895C103.986 49.6105 104.101 50.3401 104.509 50.8964L106.122 49.7136C106.09 49.6699 105.986 49.4595 105.986 48.895H103.986ZM104.519 50.9094C104.902 51.4136 105.447 51.7249 106.045 51.9067L106.627 49.9933C106.304 49.8951 106.17 49.7764 106.113 49.7006L104.519 50.9094ZM105.399 50.6L104.889 51.965L106.763 52.665L107.273 51.3L105.399 50.6ZM105.974 51.3261C105.531 51.2596 105.151 51.1011 104.818 50.853L103.624 52.457C104.23 52.9089 104.921 53.1904 105.677 53.3039L105.974 51.3261ZM104.818 50.853C104.574 50.6712 104.346 50.3562 104.198 49.7948L102.264 50.3052C102.496 51.1838 102.928 51.9388 103.624 52.457L104.818 50.853ZM102.432 49.4483C101.98 50.0478 101.419 50.5039 100.736 50.8249L101.586 52.6351C102.563 52.1761 103.381 51.5122 104.03 50.6517L102.432 49.4483ZM100.74 50.8227C100.071 51.1331 99.2874 51.3 98.3708 51.3V53.3C99.5342 53.3 100.611 53.0869 101.581 52.6373L100.74 50.8227ZM98.3708 51.3C97.0056 51.3 96.0581 50.9207 95.3989 50.2689L93.9927 51.6911C95.1136 52.7993 96.616 53.3 98.3708 53.3V51.3ZM95.3989 50.2689C94.7319 49.6094 94.3608 48.7082 94.3608 47.455H92.3608C92.3608 49.1418 92.8797 50.5906 93.9927 51.6911L95.3989 50.2689ZM94.3608 47.455C94.3608 46.1597 94.8383 45.2546 95.7862 44.6048L94.6554 42.9552C93.1233 44.0054 92.3608 45.5503 92.3608 47.455H94.3608ZM95.7831 44.6069C96.7971 43.9175 98.3801 43.505 100.666 43.505V41.505C98.1915 41.505 96.1446 41.9425 94.6585 42.9531L95.7831 44.6069ZM100.666 43.505H103.051V41.505H100.666V43.505ZM104.051 42.505V40.975H102.051V42.505H104.051ZM104.051 40.975C104.051 39.5666 103.638 38.3203 102.554 37.572L101.418 39.218C101.754 39.4497 102.051 39.9234 102.051 40.975H104.051ZM102.567 37.5813C101.64 36.919 100.45 36.645 99.1058 36.645V38.645C100.202 38.645 100.932 38.871 101.405 39.2087L102.567 37.5813ZM99.1058 36.645C98.5028 36.645 97.8422 36.713 97.1295 36.8407L97.4821 38.8093C98.1094 38.697 98.6488 38.645 99.1058 38.645V36.645ZM97.1295 36.8407C96.3938 36.9724 95.5953 37.1938 94.7374 37.4972L95.4043 39.3828C96.1864 39.1062 96.8778 38.9176 97.4821 38.8093L97.1295 36.8407ZM96.0138 38.1072L95.4738 36.5772L93.5878 37.2428L94.1278 38.7728L96.0138 38.1072ZM94.8765 37.8483C95.7872 37.5128 96.5902 37.286 97.2897 37.1589L96.9319 35.1911C96.0914 35.3439 95.1745 35.6072 94.1851 35.9717L94.8765 37.8483ZM97.2875 37.1593C98.0141 37.0289 98.7099 36.965 99.3758 36.965V34.965C98.5818 34.965 97.7676 35.0411 96.9342 35.1907L97.2875 37.1593ZM99.3758 36.965C101.074 36.965 102.177 37.3824 102.865 38.0485L104.256 36.6115C103.064 35.4576 101.377 34.965 99.3758 34.965V36.965ZM102.873 38.056C103.595 38.7402 103.986 39.6578 103.986 40.915H105.986C105.986 39.1922 105.426 37.7198 104.249 36.604L102.873 38.056ZM103.986 40.915V48.895H105.986V40.915H103.986ZM98.7308 51.815C99.7618 51.815 100.735 51.5611 101.634 51.0575L100.657 49.3125C100.057 49.6489 99.4198 49.815 98.7308 49.815V51.815ZM101.634 51.0575C102.525 50.5587 103.271 49.8668 103.873 48.9998L102.229 47.8602C101.79 48.4932 101.266 48.9713 100.657 49.3125L101.634 51.0575ZM104.051 48.43V43.93H102.051V48.43H104.051ZM103.051 42.93H100.441V44.93H103.051V42.93ZM100.441 42.93C98.5165 42.93 96.8882 43.2568 95.8602 44.1737L97.1914 45.6663C97.6434 45.2632 98.6251 44.93 100.441 44.93V42.93ZM95.8659 44.1687C94.8874 45.0282 94.4158 46.1785 94.4158 47.515H96.4158C96.4158 46.6915 96.6843 46.1118 97.1858 45.6713L95.8659 44.1687ZM94.4158 47.515C94.4158 48.7591 94.7247 49.8739 95.506 50.6841L96.9457 49.2959C96.6469 48.9861 96.4158 48.4509 96.4158 47.515H94.4158ZM95.5123 50.6906C96.3128 51.506 97.4575 51.815 98.7308 51.815V49.815C97.7441 49.815 97.2188 49.574 96.9394 49.2894L95.5123 50.6906ZM124.729 34.825L125.676 34.5046L125.34 33.51L124.363 33.8944L124.729 34.825ZM125.419 36.865L125.69 37.8275L126.704 37.542L126.366 36.5446L125.419 36.865ZM123.214 37.225L123.162 36.2264L123.162 36.2264L123.214 37.225ZM120.784 37.285V36.285L120.366 38.1933L120.784 37.285ZM122.779 38.92L121.94 39.4633L121.943 39.4689L122.779 38.92ZM122.764 44.005L123.638 44.4906L123.641 44.4861L122.764 44.005ZM120.814 45.91L120.338 45.0305L120.334 45.0329L120.814 45.91ZM116.299 46.525L116.139 47.5121L116.152 47.5142L116.165 47.516L116.299 46.525ZM115.219 46.255L115.543 45.3091L115.039 45.136L114.614 45.4588L115.219 46.255ZM114.574 47.005L113.709 46.5029L113.703 46.5134L113.697 46.5242L114.574 47.005ZM114.799 49L114.154 49.7643L114.16 49.7692L114.166 49.774L114.799 49ZM122.194 49.96L121.783 50.8715L121.787 50.8734L122.194 49.96ZM124.159 51.46L123.364 52.0661L123.37 52.0739L124.159 51.46ZM122.959 57.07L122.437 56.2172L122.429 56.222L122.959 57.07ZM113.884 57.775L114.219 56.8325L114.209 56.8294L113.884 57.775ZM111.874 56.26L111.012 56.767L111.014 56.7708L111.874 56.26ZM111.274 53.62V52.62H110.274V53.62H111.274ZM112.984 53.62H113.984V52.62H112.984V53.62ZM113.359 55.255L112.495 55.7576L112.499 55.7651L112.503 55.7724L113.359 55.255ZM114.739 56.215L115.055 55.2662L115.042 55.2621L114.739 56.215ZM120.574 56.23L120.332 55.2599L120.324 55.2617L120.317 55.2636L120.574 56.23ZM122.374 55.3L121.65 54.6103L121.65 54.6103L122.374 55.3ZM121.819 51.85L121.349 52.7327L121.349 52.7327L121.819 51.85ZM113.344 50.35L114.045 49.637L114.045 49.637L113.344 50.35ZM112.864 46.915L112.013 46.3899L112.01 46.3951L112.864 46.915ZM114.154 45.64L114.709 46.472L116.106 45.5407L114.622 44.756L114.154 45.64ZM112.204 43.9L113.056 43.3766L113.056 43.3766L112.204 43.9ZM112.324 38.575L113.17 39.1078L113.17 39.1078L112.324 38.575ZM114.454 36.655L114.913 37.5435L114.913 37.5435L114.454 36.655ZM117.619 35.95V36.95H117.626L117.634 36.9499L117.619 35.95ZM120.889 35.8L120.987 36.7952L120.998 36.794L120.889 35.8ZM122.959 35.425L122.689 34.4622L122.684 34.4635L122.959 35.425ZM114.454 38.545L113.703 37.8844L113.698 37.8901L114.454 38.545ZM114.484 44.185L113.734 44.8463L113.738 44.8512L114.484 44.185ZM120.439 44.26L119.701 43.5852L119.701 43.5852L120.439 44.26ZM120.439 38.425L119.716 39.1157L119.716 39.1157L120.439 38.425ZM123.782 35.1454L124.472 37.1854L126.366 36.5446L125.676 34.5046L123.782 35.1454ZM125.148 35.9025C124.512 36.0817 123.85 36.1902 123.162 36.2264L123.267 38.2236C124.098 38.1798 124.907 38.0483 125.69 37.8275L125.148 35.9025ZM123.162 36.2264C122.421 36.2654 121.629 36.285 120.784 36.285V38.285C121.659 38.285 122.487 38.2646 123.267 38.2236L123.162 36.2264ZM120.366 38.1933C121.12 38.5407 121.622 38.973 121.94 39.4633L123.619 38.3767C123.056 37.507 122.228 36.8493 121.203 36.3767L120.366 38.1933ZM121.943 39.4689C122.268 39.9639 122.439 40.5352 122.439 41.215H124.439C124.439 40.1748 124.17 39.2161 123.615 38.3711L121.943 39.4689ZM122.439 41.215C122.439 42.106 122.248 42.8673 121.887 43.5239L123.641 44.4861C124.18 43.5027 124.439 42.404 124.439 41.215H122.439ZM121.89 43.5194C121.537 44.1554 121.028 44.6571 120.338 45.0305L121.29 46.7895C122.3 46.2429 123.092 45.4746 123.638 44.4906L121.89 43.5194ZM120.334 45.0329C119.675 45.3937 118.825 45.6 117.739 45.6V47.6C119.074 47.6 120.273 47.3463 121.294 46.7871L120.334 45.0329ZM117.739 45.6C117.171 45.6 116.741 45.5756 116.433 45.534L116.165 47.516C116.597 47.5744 117.127 47.6 117.739 47.6V45.6ZM116.459 45.5379C116.144 45.4868 115.839 45.4105 115.543 45.3091L114.895 47.2009C115.299 47.3395 115.714 47.4432 116.139 47.5121L116.459 45.5379ZM114.614 45.4588C114.245 45.7393 113.946 46.0947 113.709 46.5029L115.439 47.5071C115.562 47.2953 115.693 47.1507 115.824 47.0512L114.614 45.4588ZM113.697 46.5242C113.45 46.9754 113.319 47.4651 113.319 47.98H115.319C115.319 47.8149 115.358 47.6546 115.451 47.4858L113.697 46.5242ZM113.319 47.98C113.319 48.6918 113.615 49.3089 114.154 49.7643L115.444 48.2357C115.344 48.1511 115.319 48.0882 115.319 47.98H113.319ZM114.166 49.774C114.779 50.2759 115.665 50.405 116.539 50.405V48.405C115.753 48.405 115.479 48.2641 115.432 48.226L114.166 49.774ZM116.539 50.405H119.449V48.405H116.539V50.405ZM119.449 50.405C120.335 50.405 121.107 50.5666 121.783 50.8715L122.605 49.0485C121.641 48.6134 120.583 48.405 119.449 48.405V50.405ZM121.787 50.8734C122.487 51.1853 122.999 51.5879 123.364 52.066L124.955 50.854C124.359 50.0721 123.562 49.4747 122.601 49.0466L121.787 50.8734ZM123.37 52.0739C123.725 52.5304 123.894 53.0248 123.894 53.59H125.894C125.894 52.5752 125.573 51.6496 124.948 50.8461L123.37 52.0739ZM123.894 53.59C123.894 54.7769 123.426 55.6115 122.437 56.2172L123.481 57.9228C125.072 56.9485 125.894 55.4631 125.894 53.59H123.894ZM122.429 56.222C121.369 56.8846 119.805 57.27 117.634 57.27V59.27C120.004 59.27 121.989 58.8554 123.489 57.918L122.429 56.222ZM117.634 57.27C116.119 57.27 114.997 57.1087 114.219 56.8326L113.55 58.7174C114.631 59.1013 116.009 59.27 117.634 59.27V57.27ZM114.209 56.8294C113.451 56.5685 112.997 56.1925 112.734 55.7492L111.014 56.7708C111.571 57.7075 112.457 58.3415 113.559 58.7206L114.209 56.8294ZM112.736 55.753C112.454 55.2732 112.274 54.5848 112.274 53.62H110.274C110.274 54.8152 110.494 55.8868 111.012 56.767L112.736 55.753ZM111.274 54.62H112.984V52.62H111.274V54.62ZM111.984 53.62C111.984 54.4006 112.131 55.133 112.495 55.7576L114.224 54.7524C114.087 54.517 113.984 54.1594 113.984 53.62H111.984ZM112.503 55.7724C112.929 56.4767 113.632 56.9123 114.436 57.1679L115.042 55.2621C114.526 55.0977 114.309 54.8933 114.215 54.7376L112.503 55.7724ZM114.423 57.1637C115.234 57.4342 116.306 57.545 117.574 57.545V55.545C116.382 55.545 115.564 55.4358 115.055 55.2663L114.423 57.1637ZM117.574 57.545C118.834 57.545 119.928 57.4366 120.831 57.1964L120.317 55.2636C119.641 55.4434 118.735 55.545 117.574 55.545V57.545ZM120.817 57.2001C121.727 56.9726 122.523 56.5932 123.098 55.9897L121.65 54.6103C121.425 54.8468 121.022 55.0874 120.332 55.2599L120.817 57.2001ZM123.098 55.9897C123.694 55.3638 123.974 54.5778 123.974 53.71H121.974C121.974 54.1222 121.854 54.3962 121.65 54.6103L123.098 55.9897ZM123.974 53.71C123.974 53.1348 123.839 52.5842 123.535 52.095C123.233 51.6084 122.799 51.239 122.289 50.9673L121.349 52.7327C121.609 52.871 121.753 53.0166 121.836 53.15C121.917 53.2808 121.974 53.4552 121.974 53.71H123.974ZM122.289 50.9673C121.344 50.4641 120.25 50.235 119.044 50.235V52.235C119.999 52.235 120.754 52.4159 121.349 52.7327L122.289 50.9673ZM119.044 50.235H116.134V52.235H119.044V50.235ZM116.134 50.235C115.008 50.235 114.383 49.9692 114.045 49.637L112.643 51.063C113.505 51.9108 114.74 52.235 116.134 52.235V50.235ZM114.045 49.637C113.614 49.2128 113.444 48.7868 113.444 48.325H111.444C111.444 49.3832 111.874 50.3072 112.643 51.063L114.045 49.637ZM113.444 48.325C113.444 48.0501 113.522 47.7579 113.718 47.4349L112.01 46.3951C111.646 46.9921 111.444 47.6399 111.444 48.325H113.444ZM113.715 47.4401C113.914 47.1183 114.23 46.7909 114.709 46.472L113.599 44.8079C112.938 45.2491 112.395 45.7717 112.013 46.3899L113.715 47.4401ZM114.622 44.756C113.878 44.363 113.376 43.8965 113.056 43.3766L111.352 44.4234C111.893 45.3035 112.69 45.997 113.687 46.524L114.622 44.756ZM113.056 43.3766C112.743 42.8666 112.559 42.2026 112.559 41.335H110.559C110.559 42.4874 110.805 43.5334 111.352 44.4234L113.056 43.3766ZM112.559 41.335C112.559 40.4786 112.768 39.7461 113.17 39.1078L111.478 38.0422C110.86 39.0239 110.559 40.1314 110.559 41.335H112.559ZM113.17 39.1078C113.579 38.4594 114.15 37.9376 114.913 37.5435L113.995 35.7665C112.938 36.3124 112.09 37.0706 111.478 38.0422L113.17 39.1078ZM114.913 37.5435C115.659 37.1584 116.551 36.95 117.619 36.95V34.95C116.287 34.95 115.07 35.2116 113.995 35.7665L114.913 37.5435ZM117.634 36.9499C119.016 36.9297 120.137 36.8791 120.987 36.7952L120.791 34.8048C120.021 34.8809 118.963 34.9303 117.605 34.9501L117.634 36.9499ZM120.998 36.794C121.853 36.7002 122.602 36.5669 123.234 36.3865L122.684 34.4635C122.196 34.6031 121.565 34.7198 120.78 34.806L120.998 36.794ZM123.229 36.3878C123.835 36.2178 124.457 36.0066 125.095 35.7556L124.363 33.8944C123.781 34.1234 123.223 34.3122 122.689 34.4622L123.229 36.3878ZM117.574 36.42C115.991 36.42 114.622 36.84 113.703 37.8844L115.205 39.2056C115.606 38.75 116.317 38.42 117.574 38.42V36.42ZM113.698 37.8901C112.869 38.847 112.479 40.0299 112.479 41.365H114.479C114.479 40.4401 114.739 39.743 115.21 39.1999L113.698 37.8901ZM112.479 41.365C112.479 42.7009 112.886 43.8839 113.734 44.8463L115.234 43.5237C114.743 42.9661 114.479 42.2691 114.479 41.365H112.479ZM113.738 44.8512C114.67 45.8936 116.058 46.31 117.664 46.31V44.31C116.37 44.31 115.639 43.9764 115.23 43.5188L113.738 44.8512ZM117.664 46.31C119.072 46.31 120.298 45.8958 121.177 44.9348L119.701 43.5852C119.3 44.0242 118.676 44.31 117.664 44.31V46.31ZM121.177 44.9348C122.032 43.9996 122.399 42.761 122.399 41.35H120.399C120.399 42.419 120.126 43.1204 119.701 43.5852L121.177 44.9348ZM122.399 41.35C122.399 39.9121 122.038 38.6516 121.162 37.7343L119.716 39.1157C120.12 39.5384 120.399 40.2279 120.399 41.35H122.399ZM121.162 37.7343C120.272 36.8022 119.013 36.42 117.574 36.42V38.42C118.675 38.42 119.326 38.7078 119.716 39.1157L121.162 37.7343Z" fill="#789EFF"/>
<rect width="7" height="55" rx="3.5" transform="matrix(0.869126 0.494591 -0.505429 0.862868 73.7986 13)" fill="#898989"/>
</svg>
