<svg width="92" height="67" viewBox="0 0 92 67" fill="none" xmlns="http://www.w3.org/2000/svg">
<path d="M24.7947 1.036L28.1067 1.072C31.6347 1.432 34.8747 2.404 37.8267 3.988C40.4907 5.404 42.8067 7.228 44.7747 9.46C47.1027 12.028 48.8187 15.028 49.9227 18.46C51.4827 23.212 51.5907 28 50.2467 32.824C50.1507 33.184 50.0427 33.544 49.9227 33.904C49.1067 36.496 47.8827 38.896 46.2507 41.104C43.4667 44.944 39.8427 47.776 35.3787 49.6C33.0027 50.512 30.5667 51.088 28.0707 51.328C26.8947 51.424 25.5747 51.424 24.1107 51.328C24.0387 51.328 23.9667 51.328 23.8947 51.328C20.3667 50.968 17.1147 49.996 14.1387 48.412C11.4747 46.996 9.15874 45.172 7.19073 42.94C4.86273 40.348 3.14673 37.336 2.04273 33.904C0.482734 29.176 0.374734 24.388 1.71873 19.54C1.81473 19.18 1.92273 18.82 2.04273 18.46C3.14673 15.028 4.86273 12.028 7.19073 9.46C8.41473 8.092 9.63873 6.964 10.8627 6.076C13.7427 3.868 16.9707 2.38 20.5467 1.612C21.8907 1.3 23.3067 1.108 24.7947 1.036ZM27.7467 4.96C26.4987 4.888 25.4907 4.876 24.7227 4.924C21.7467 5.14 18.9987 5.872 16.4787 7.12C12.3987 9.16 9.30273 12.184 7.19073 16.192C6.66273 17.176 6.21873 18.196 5.85873 19.252C5.30673 20.956 4.94673 22.696 4.77873 24.472C4.68273 25.24 4.67073 26.272 4.74273 27.568C4.76673 27.712 4.77873 27.82 4.77873 27.892C4.94673 29.692 5.30673 31.444 5.85873 33.148C7.34673 37.468 9.96274 40.96 13.7067 43.624C14.1627 43.936 14.6307 44.236 15.1107 44.524C17.6547 46.036 20.4027 46.972 23.3547 47.332C25.1067 47.572 26.8587 47.572 28.6107 47.332C32.3787 46.852 35.7627 45.496 38.7627 43.264C42.6267 40.336 45.1947 36.532 46.4667 31.852C46.7547 30.844 46.9587 29.824 47.0787 28.792C47.1747 28.168 47.2227 27.304 47.2227 26.2C47.2227 25.096 47.1747 24.22 47.0787 23.572C46.6467 19.828 45.2907 16.444 43.0107 13.42C39.9147 9.316 35.8947 6.676 30.9507 5.5C29.9187 5.236 28.8507 5.056 27.7467 4.96ZM25.5867 22.78C25.9947 22.732 26.4027 22.756 26.8107 22.852C26.8587 22.876 27.0987 22.972 27.5307 23.14C28.2027 23.452 28.7067 23.956 29.0427 24.652C29.2827 25.132 29.4027 25.648 29.4027 26.2C29.4027 26.752 29.2827 27.256 29.0427 27.712C28.7307 28.408 28.2267 28.924 27.5307 29.26C27.0507 29.5 26.5347 29.62 25.9827 29.62C25.4307 29.62 24.9267 29.5 24.4707 29.26C23.7507 28.948 23.2347 28.432 22.9227 27.712C22.6827 27.256 22.5627 26.752 22.5627 26.2C22.5627 25.648 22.6827 25.132 22.9227 24.652C23.1387 24.244 23.4267 23.872 23.7867 23.536C24.3387 23.104 24.9387 22.852 25.5867 22.78ZM56.6455 1.072C57.4135 0.856 58.0615 1.072 58.5895 1.72C58.7815 1.936 58.9135 2.188 58.9855 2.476C59.0335 2.62 59.0575 10.168 59.0575 25.12V47.512H73.1695H87.2815V25.12C87.2815 10.168 87.3055 2.62 87.3535 2.476C87.5455 1.684 88.0375 1.204 88.8295 1.036C89.5015 0.892 90.0895 1.072 90.5935 1.576C90.8575 1.84 91.0255 2.14 91.0975 2.476C91.1455 2.62 91.1695 10.528 91.1695 26.2C91.1695 41.872 91.1455 49.78 91.0975 49.924C90.9055 50.668 90.4375 51.136 89.6935 51.328C89.5495 51.376 84.0535 51.4 73.2055 51.4C62.3095 51.4 56.7295 51.364 56.4655 51.292L56.2135 51.148C55.6855 50.908 55.3615 50.488 55.2415 49.888C55.1935 49.768 55.1695 41.872 55.1695 26.2C55.1695 10.528 55.1935 2.62 55.2415 2.476C55.4335 1.732 55.9015 1.264 56.6455 1.072Z" fill="#C7C7C7"/>
<path d="M1.18781 66V55.752H3.06381V60.036H3.88981L6.49381 55.752H8.77581L5.63981 60.89L8.77581 66H6.49381L3.88981 61.772H3.07781V66H1.18781ZM14.4728 60.82C14.4728 60.1853 14.4962 59.6253 14.5428 59.14C14.5988 58.6453 14.6968 58.174 14.8368 57.726C14.9862 57.2687 15.1822 56.8953 15.4248 56.606C15.6768 56.3073 15.9988 56.074 16.3908 55.906C16.7922 55.7287 17.2682 55.64 17.8188 55.64C18.6122 55.64 19.2842 55.6727 19.8348 55.738C20.3948 55.794 21.0342 55.9107 21.7528 56.088V57.614C21.7435 57.614 21.6642 57.6047 21.5148 57.586C21.3748 57.5673 21.1835 57.5487 20.9408 57.53C20.7075 57.502 20.4508 57.4787 20.1708 57.46C19.8908 57.432 19.5782 57.4133 19.2328 57.404C18.8968 57.3853 18.5795 57.376 18.2808 57.376C18.0195 57.376 17.7908 57.404 17.5948 57.46C17.4082 57.5067 17.2448 57.5907 17.1048 57.712C16.9742 57.8333 16.8622 57.9827 16.7688 58.16C16.6848 58.328 16.6148 58.552 16.5588 58.832C16.5122 59.1027 16.4795 59.3967 16.4608 59.714C16.4422 60.022 16.4328 60.4 16.4328 60.848C16.4328 62.2013 16.5448 63.1067 16.7688 63.564C16.9928 64.012 17.4642 64.236 18.1828 64.236C18.3602 64.236 18.5422 64.2173 18.7288 64.18C18.9155 64.1333 19.0788 64.082 19.2188 64.026C19.3588 63.9607 19.4848 63.8953 19.5968 63.83C19.7182 63.7647 19.8068 63.7087 19.8628 63.662C19.9188 63.6153 19.9468 63.592 19.9468 63.592V61.758H18.5188V60.512C19.0695 60.288 19.8815 60.176 20.9548 60.176C21.2535 60.176 21.5708 60.1853 21.9068 60.204V66H20.5068L19.9748 65.314C19.8815 65.4073 19.7882 65.4867 19.6948 65.552C19.6015 65.6173 19.4895 65.6827 19.3588 65.748C19.2282 65.8133 19.0882 65.8693 18.9388 65.916C18.7988 65.9533 18.6308 65.986 18.4348 66.014C18.2482 66.042 18.0382 66.0607 17.8048 66.07C17.2448 66.0887 16.7595 66.0093 16.3488 65.832C15.9382 65.6547 15.6115 65.4167 15.3688 65.118C15.1355 64.8193 14.9488 64.432 14.8088 63.956C14.6688 63.4707 14.5755 62.99 14.5288 62.514C14.4915 62.0287 14.4728 61.464 14.4728 60.82ZM30.5344 57.656L31.7944 55.724H33.5164L31.8084 57.656H30.5344ZM27.7764 62.43C27.7764 61.786 27.8138 61.2493 27.8884 60.82C27.9631 60.3813 28.0798 60.008 28.2384 59.7C28.3971 59.4013 28.6164 59.1633 28.8964 58.986C29.4098 58.6593 30.1658 58.496 31.1644 58.496C32.4431 58.496 33.3298 58.776 33.8244 59.336C34.3098 59.896 34.5524 60.8947 34.5524 62.332C34.5524 63.76 34.3098 64.74 33.8244 65.272C33.3484 65.804 32.4618 66.07 31.1644 66.07C29.8951 66.07 29.0084 65.7853 28.5044 65.216C28.0191 64.6653 27.7764 63.7367 27.7764 62.43ZM29.7924 61.156C29.7551 61.4453 29.7364 61.842 29.7364 62.346C29.7364 62.85 29.7598 63.242 29.8064 63.522C29.8531 63.802 29.9418 64.012 30.0724 64.152C30.1938 64.3013 30.3338 64.3947 30.4924 64.432C30.6511 64.4693 30.8658 64.488 31.1364 64.488C31.4071 64.488 31.6124 64.4787 31.7524 64.46C31.8831 64.4413 32.0138 64.3947 32.1444 64.32C32.2658 64.2453 32.3544 64.1287 32.4104 63.97C32.5318 63.634 32.5924 63.2 32.5924 62.668C32.5924 62.1267 32.5831 61.7347 32.5644 61.492C32.5551 61.2493 32.5271 61.0393 32.4804 60.862C32.4338 60.6847 32.3778 60.5493 32.3124 60.456C32.2564 60.3533 32.1724 60.2693 32.0604 60.204C31.8738 60.1107 31.5984 60.064 31.2344 60.064C30.8704 60.064 30.6044 60.0873 30.4364 60.134C30.2778 60.1807 30.1378 60.288 30.0164 60.456C29.9044 60.624 29.8298 60.8573 29.7924 61.156ZM40.4824 66V58.566H42.1344L42.4424 59.504C43.1424 58.832 43.8518 58.496 44.5704 58.496C44.9718 58.496 45.2471 58.524 45.3964 58.58V60.47C45.1351 60.442 44.7758 60.428 44.3184 60.428C43.8798 60.428 43.5111 60.4887 43.2124 60.61C42.9231 60.722 42.6664 60.9367 42.4424 61.254V66H40.4824ZM51.0803 66V58.566H52.6483L53.0403 59.364C53.2736 59.1867 53.437 59.07 53.5303 59.014C53.633 58.9487 53.7916 58.86 54.0063 58.748C54.221 58.6267 54.4356 58.5473 54.6503 58.51C54.8743 58.4633 55.1216 58.44 55.3923 58.44C56.8763 58.44 57.6183 59.308 57.6183 61.044V66H55.6583V61.016C55.6583 60.6613 55.5836 60.4047 55.4343 60.246C55.2943 60.0873 55.0936 60.008 54.8323 60.008C54.571 60.008 54.3376 60.036 54.1323 60.092C53.9363 60.1387 53.7543 60.2087 53.5863 60.302C53.4276 60.386 53.2456 60.5027 53.0403 60.652V66H51.0803ZM63.4256 57.46V56.228C63.4256 55.9853 63.5376 55.864 63.7616 55.864H65.2316C65.4369 55.864 65.5396 55.9853 65.5396 56.228V57.46C65.5396 57.5627 65.5116 57.642 65.4556 57.698C65.4089 57.754 65.3342 57.782 65.2316 57.782H63.7616C63.6962 57.782 63.6356 57.7727 63.5796 57.754C63.5329 57.726 63.4956 57.6887 63.4676 57.642C63.4396 57.586 63.4256 57.5253 63.4256 57.46ZM63.4956 66V58.566H65.4556V66H63.4956ZM71.2594 64.11V63.41C71.2594 63.1207 71.2968 62.8593 71.3714 62.626C71.4554 62.3927 71.5814 62.178 71.7494 61.982C71.9174 61.786 72.1414 61.6367 72.4214 61.534C72.7108 61.422 73.0514 61.366 73.4434 61.366C73.8074 61.366 74.1668 61.3707 74.5214 61.38C74.8854 61.38 75.2541 61.3753 75.6274 61.366C75.6368 61.058 75.6368 60.8993 75.6274 60.89C75.6274 60.694 75.6041 60.5353 75.5574 60.414C75.5201 60.2927 75.4548 60.1993 75.3614 60.134C75.2681 60.0687 75.1654 60.0267 75.0534 60.008C74.9414 59.9893 74.8014 59.98 74.6334 59.98C74.0268 59.98 72.9861 60.0313 71.5114 60.134V58.93C72.3421 58.6033 73.4714 58.4353 74.8994 58.426C75.7581 58.426 76.4208 58.608 76.8874 58.972C77.3541 59.3267 77.5874 59.9427 77.5874 60.82V66H76.0334L75.6274 65.188C75.5901 65.2533 75.4688 65.356 75.2634 65.496C75.0674 65.6267 74.7874 65.762 74.4234 65.902C74.0594 66.0327 73.7048 66.0933 73.3594 66.084C72.6874 66.0653 72.1694 65.8647 71.8054 65.482C71.4414 65.09 71.2594 64.6327 71.2594 64.11ZM73.2194 63.83C73.2194 64.11 73.2801 64.2967 73.4014 64.39C73.5228 64.474 73.6954 64.516 73.9194 64.516C74.0314 64.516 74.1481 64.5067 74.2694 64.488C74.3908 64.46 74.5028 64.432 74.6054 64.404C74.7174 64.3667 74.8248 64.3293 74.9274 64.292C75.0301 64.2453 75.1234 64.2033 75.2074 64.166C75.2914 64.1193 75.3614 64.082 75.4174 64.054C75.4828 64.0167 75.5341 63.9887 75.5714 63.97C75.6088 63.942 75.6274 63.928 75.6274 63.928V62.57L73.8214 62.71C73.7001 62.7193 73.5974 62.752 73.5134 62.808C73.4294 62.8547 73.3641 62.9153 73.3174 62.99C73.2801 63.0647 73.2521 63.1393 73.2334 63.214C73.2241 63.2887 73.2194 63.3727 73.2194 63.466V63.83ZM83.4892 66V55.052H85.4492V61.058H85.8552L87.9552 58.566H90.4472L87.6612 61.8L90.4472 66H88.1092L85.8552 62.556H85.4492V66H83.4892Z" fill="#C7C7C7"/>
</svg>
