<svg width="92" height="67" viewBox="0 0 92 67" fill="none" xmlns="http://www.w3.org/2000/svg">
<path d="M24.7947 0.036L28.1067 0.072C31.6347 0.432 34.8747 1.404 37.8267 2.988C40.4907 4.404 42.8067 6.228 44.7747 8.46C47.1027 11.028 48.8187 14.028 49.9227 17.46C51.4827 22.212 51.5907 27 50.2467 31.824C50.1507 32.184 50.0427 32.544 49.9227 32.904C49.1067 35.496 47.8827 37.896 46.2507 40.104C43.4667 43.944 39.8427 46.776 35.3787 48.6C33.0027 49.512 30.5667 50.088 28.0707 50.328C26.8947 50.424 25.5747 50.424 24.1107 50.328C24.0387 50.328 23.9667 50.328 23.8947 50.328C20.3667 49.968 17.1147 48.996 14.1387 47.412C11.4747 45.996 9.15874 44.172 7.19073 41.94C4.86273 39.348 3.14673 36.336 2.04273 32.904C0.482734 28.176 0.374734 23.388 1.71873 18.54C1.81473 18.18 1.92273 17.82 2.04273 17.46C3.14673 14.028 4.86273 11.028 7.19073 8.46C8.41473 7.092 9.63873 5.964 10.8627 5.076C13.7427 2.868 16.9707 1.38 20.5467 0.612C21.8907 0.3 23.3067 0.108 24.7947 0.036ZM27.7467 3.96C26.4987 3.888 25.4907 3.876 24.7227 3.924C21.7467 4.14 18.9987 4.872 16.4787 6.12C12.3987 8.16 9.30273 11.184 7.19073 15.192C6.66273 16.176 6.21873 17.196 5.85873 18.252C5.30673 19.956 4.94673 21.696 4.77873 23.472C4.68273 24.24 4.67073 25.272 4.74273 26.568C4.76673 26.712 4.77873 26.82 4.77873 26.892C4.94673 28.692 5.30673 30.444 5.85873 32.148C7.34673 36.468 9.96274 39.96 13.7067 42.624C14.1627 42.936 14.6307 43.236 15.1107 43.524C17.6547 45.036 20.4027 45.972 23.3547 46.332C25.1067 46.572 26.8587 46.572 28.6107 46.332C32.3787 45.852 35.7627 44.496 38.7627 42.264C42.6267 39.336 45.1947 35.532 46.4667 30.852C46.7547 29.844 46.9587 28.824 47.0787 27.792C47.1747 27.168 47.2227 26.304 47.2227 25.2C47.2227 24.096 47.1747 23.22 47.0787 22.572C46.6467 18.828 45.2907 15.444 43.0107 12.42C39.9147 8.316 35.8947 5.676 30.9507 4.5C29.9187 4.236 28.8507 4.056 27.7467 3.96ZM25.5867 21.78C25.9947 21.732 26.4027 21.756 26.8107 21.852C26.8587 21.876 27.0987 21.972 27.5307 22.14C28.2027 22.452 28.7067 22.956 29.0427 23.652C29.2827 24.132 29.4027 24.648 29.4027 25.2C29.4027 25.752 29.2827 26.256 29.0427 26.712C28.7307 27.408 28.2267 27.924 27.5307 28.26C27.0507 28.5 26.5347 28.62 25.9827 28.62C25.4307 28.62 24.9267 28.5 24.4707 28.26C23.7507 27.948 23.2347 27.432 22.9227 26.712C22.6827 26.256 22.5627 25.752 22.5627 25.2C22.5627 24.648 22.6827 24.132 22.9227 23.652C23.1387 23.244 23.4267 22.872 23.7867 22.536C24.3387 22.104 24.9387 21.852 25.5867 21.78ZM56.6455 0.072C57.4135 -0.144 58.0615 0.072 58.5895 0.72C58.7815 0.936 58.9135 1.188 58.9855 1.476C59.0335 1.62 59.0575 9.168 59.0575 24.12V46.512H73.1695H87.2815V24.12C87.2815 9.168 87.3055 1.62 87.3535 1.476C87.5455 0.684 88.0375 0.204 88.8295 0.036C89.5015 -0.108 90.0895 0.072 90.5935 0.576C90.8575 0.84 91.0255 1.14 91.0975 1.476C91.1455 1.62 91.1695 9.528 91.1695 25.2C91.1695 40.872 91.1455 48.78 91.0975 48.924C90.9055 49.668 90.4375 50.136 89.6935 50.328C89.5495 50.376 84.0535 50.4 73.2055 50.4C62.3095 50.4 56.7295 50.364 56.4655 50.292L56.2135 50.148C55.6855 49.908 55.3615 49.488 55.2415 48.888C55.1935 48.768 55.1695 40.872 55.1695 25.2C55.1695 9.528 55.1935 1.62 55.2415 1.476C55.4335 0.732 55.9015 0.264 56.6455 0.072Z" fill="#C7C7C7"/>
<path d="M4.10467 61.7788L2.73504 63.2314V67H0.634941V54.9141H2.73504V60.5835L3.89715 59.1475L7.43328 54.9141H9.97332L5.4826 60.2681L10.2306 67H7.74041L4.10467 61.7788ZM23.5876 65.4312C23.1504 66.0011 22.5445 66.4328 21.7697 66.7261C20.995 67.0194 20.1151 67.166 19.1301 67.166C18.1174 67.166 17.2209 66.9364 16.4406 66.4771C15.6604 66.0177 15.0572 65.362 14.6311 64.5098C14.2105 63.652 13.9919 62.6532 13.9753 61.5132V60.5669C13.9753 58.7407 14.4125 57.3158 15.2868 56.292C16.1612 55.2627 17.3814 54.748 18.9475 54.748C20.2922 54.748 21.3602 55.0801 22.1516 55.7441C22.9429 56.4082 23.4188 57.3656 23.5793 58.6162H21.5207C21.2883 57.1608 20.4444 56.4331 18.989 56.4331C18.0482 56.4331 17.3316 56.7734 16.8391 57.4541C16.3521 58.1292 16.1003 59.1226 16.0837 60.4341V61.3638C16.0837 62.6698 16.3576 63.6852 16.9055 64.4102C17.4589 65.1296 18.2253 65.4893 19.2048 65.4893C20.2784 65.4893 21.042 65.2458 21.4958 64.7588V62.3931H19.0056V60.7993H23.5876V65.4312ZM28.5525 62.4263C28.5525 61.5464 28.7268 60.755 29.0754 60.0522C29.424 59.3439 29.9138 58.8016 30.5446 58.4253C31.1755 58.0435 31.9004 57.8525 32.7195 57.8525C33.9314 57.8525 34.9136 58.2427 35.6662 59.0229C36.4244 59.8032 36.8339 60.8381 36.8947 62.1274L36.903 62.6006C36.903 63.486 36.7315 64.2773 36.3884 64.9746C36.0508 65.6719 35.5639 66.2114 34.9275 66.5933C34.2966 66.9751 33.5661 67.166 32.7361 67.166C31.4688 67.166 30.4533 66.7454 29.6897 65.9043C28.9315 65.0576 28.5525 63.9315 28.5525 62.5259V62.4263ZM30.5695 62.6006C30.5695 63.5247 30.7605 64.2497 31.1423 64.7754C31.5241 65.2956 32.0554 65.5557 32.7361 65.5557C33.4167 65.5557 33.9452 65.29 34.3215 64.7588C34.7033 64.2275 34.8943 63.45 34.8943 62.4263C34.8943 61.5187 34.6978 60.7993 34.3049 60.2681C33.9175 59.7368 33.389 59.4712 32.7195 59.4712C32.0609 59.4712 31.538 59.734 31.1506 60.2598C30.7632 60.7799 30.5695 61.5602 30.5695 62.6006ZM33.2756 54.25H35.5749L33.2756 56.7651H31.657L33.2756 54.25ZM46.5412 59.8613C46.2756 59.8171 46.0017 59.7949 45.7195 59.7949C44.7953 59.7949 44.1728 60.1491 43.8518 60.8574V67H41.8347V58.0186H43.7605L43.8103 59.0229C44.2973 58.2427 44.9724 57.8525 45.8357 57.8525C46.1234 57.8525 46.3614 57.8913 46.5495 57.9688L46.5412 59.8613ZM52.9172 58.0186L52.9753 59.0562C53.6394 58.2537 54.511 57.8525 55.5901 57.8525C57.4605 57.8525 58.4124 58.9233 58.4456 61.0649V67H56.4285V61.1812C56.4285 60.6112 56.304 60.1906 56.0549 59.9194C55.8114 59.6427 55.4102 59.5044 54.8513 59.5044C54.0378 59.5044 53.4319 59.8724 53.0335 60.6084V67H51.0164V58.0186H52.9172ZM65.8841 67H63.867V58.0186H65.8841V67ZM63.7425 55.686C63.7425 55.3761 63.8393 55.1188 64.033 54.9141C64.2322 54.7093 64.5144 54.6069 64.8797 54.6069C65.2449 54.6069 65.5271 54.7093 65.7263 54.9141C65.9256 55.1188 66.0252 55.3761 66.0252 55.686C66.0252 55.9904 65.9256 56.245 65.7263 56.4497C65.5271 56.6489 65.2449 56.7485 64.8797 56.7485C64.5144 56.7485 64.2322 56.6489 64.033 56.4497C63.8393 56.245 63.7425 55.9904 63.7425 55.686ZM76.6844 67C76.5958 66.8285 76.5184 66.549 76.452 66.1616C75.81 66.8312 75.0242 67.166 74.0945 67.166C73.1925 67.166 72.4565 66.9087 71.8865 66.394C71.3165 65.8794 71.0315 65.243 71.0315 64.4849C71.0315 63.5275 71.3857 62.7943 72.094 62.2852C72.8079 61.7705 73.8261 61.5132 75.1487 61.5132H76.3855V60.9238C76.3855 60.459 76.2555 60.0882 75.9954 59.8115C75.7353 59.5293 75.3396 59.3882 74.8084 59.3882C74.3491 59.3882 73.9728 59.5044 73.6795 59.7368C73.3862 59.9637 73.2395 60.2542 73.2395 60.6084H71.2225C71.2225 60.1159 71.3857 59.6566 71.7122 59.2305C72.0387 58.7988 72.4814 58.4613 73.0403 58.2178C73.6048 57.9743 74.2329 57.8525 74.9246 57.8525C75.976 57.8525 76.8144 58.1182 77.4397 58.6494C78.0651 59.1751 78.386 59.9167 78.4026 60.874V64.9248C78.4026 65.7327 78.5161 66.3774 78.743 66.8589V67H76.6844ZM74.4681 65.5474C74.8665 65.5474 75.24 65.4505 75.5887 65.2568C75.9428 65.0632 76.2085 64.8031 76.3855 64.4766V62.7832H75.2981C74.5511 62.7832 73.9894 62.9132 73.6131 63.1733C73.2368 63.4334 73.0486 63.8014 73.0486 64.2773C73.0486 64.6647 73.1759 64.9746 73.4305 65.207C73.6906 65.4339 74.0364 65.5474 74.4681 65.5474ZM86.6629 63.1484L85.7664 64.0698V67H83.7493V54.25H85.7664V61.6045L86.3973 60.8159L88.8792 58.0186H91.303L87.9661 61.7622L91.66 67H89.3275L86.6629 63.1484Z" fill="#C7C7C7"/>
</svg>
